<svg xmlns="http://www.w3.org/2000/svg" viewBox="0 0 275 90"><path d="M66.2 50.4V64h4.3v-6.6c0-2.3 1.2-3.5 3-3.5 1.6 0 2.4.8 2.4 3.1v7h4.3v-8.5c0-3.2-1.5-5.4-5-5.4-2.2 0-4 1-5 2.8l-.4-2.5h-3.6zM58.9 64h3.5V50.4h-4.3v6.9c0 2.3-1.2 3.5-2.9 3.5-1.6 0-2.4-1-2.4-3v-7.4h-4.3V59c0 3.1 1.6 5.3 5.2 5.3 2 0 3.8-.9 4.8-2.7l.4 2.4zM21 64h4.3v-5.4c0-2.9 1.5-4.7 4.5-4.4v-4.1c-2.2-.1-3.9 1.1-4.8 3l-.4-2.7H21V64zm-12.5.3c2.5 0 4.4-1 5.4-2.7l.3 2.3h3.2V53.7h-8V57h4v.2c-.2 2.7-2.1 3.6-4 3.6-3.1 0-4.8-1.5-4.8-6.4 0-4.8 1.7-6.2 4.8-6.2 2 0 3 .6 3.9 2.3l3.6-1.9c-1.3-2.9-3.7-4.1-7.4-4.1-6.2 0-9.3 3-9.3 9.9-.2 6.8 3 9.9 8.3 9.9M93 45v6.9c-1-1.2-2.2-1.9-4-1.9-3.6 0-6 2.5-6 7.3 0 4.6 2.2 7 5.7 7 2.2 0 3.7-.4 4.6-2l.2 2.6H97V45h-4zm-3 16.1c-1.9 0-2.8-1.3-2.8-3.9 0-2.8 1-4 2.8-4 1.7 0 3 1.1 3 3.9s-1.2 4-3 4zm-51.4-11c-4.5 0-7.1 2.2-7.1 7.1 0 4.8 2.4 7.2 7.1 7.2 4.7 0 7.1-2.4 7.1-7.2 0-4.9-2.3-7.1-7.1-7.1zm0 11.1c-2.1 0-3-1.1-3-4 0-2.8.9-3.9 3-3.9s3 1.1 3 3.9-.9 4-3 4zm196.6-16.3h4.3v-5.4c0-2.9 1.5-4.7 4.5-4.4V31c-2.2-.1-3.9 1.1-4.8 3l-.4-2.7h-3.6v13.6zM194 27.4c0 1.5.9 2.2 2.5 2.2s2.5-.7 2.5-2.2c0-1.6-.9-2.2-2.5-2.2-1.6-.1-2.5.6-2.5 2.2m.4 3.9h4.3v13.5h-4.3zm-9.1 11.1c-1.7 0-3.1-.7-4-1.9l-2.2 2.1c1.2 1.8 3.3 2.6 6.1 2.6 4.6 0 6-2.1 6-4.3 0-2-1.2-3.6-4.3-4.2l-1.6-.3c-1.3-.3-1.8-.7-1.8-1.3 0-.7.7-1.1 2-1.1 1.5 0 2.6.5 3.4 1.5l2.2-2.2c-1.3-1.6-3.1-2.3-5.7-2.3-3.9 0-5.7 1.9-5.7 4.3 0 2.3 1.9 3.9 4.7 4.5l1.1.2c1.3.3 1.8.5 1.8 1.3.2.7-.5 1.1-2 1.1m-22.4-11.1v13.5h4.3v-6.6c0-2.3 1.2-3.5 3-3.5 1.6 0 2.4.8 2.4 3.1v7.1h4.3v-8.5c0-3.2-1.5-5.4-5-5.4-2.2 0-4 1-5 2.8l-.4-2.5h-3.6zm-25.1 13.9c3 0 5-1.1 6.2-3.4l-3-1.7c-.5 1.3-1.5 1.9-3 1.9-2.1 0-2.9-1.3-2.9-3.9 0-2.9 1-3.8 3-3.8 1.3 0 2.2.5 2.8 1.7l2.9-2.1c-1.1-2-3-3-5.8-3-4.5 0-7.1 2.2-7.1 7.1 0 5.2 2.6 7.2 6.9 7.2M271 26v6.8c-1-1.2-2.1-1.9-3.9-1.9-3.6 0-5.9 2.5-5.9 7.3 0 4.6 2.3 7 5.7 7 2.2 0 3.7-.8 4.6-2.4l.2 2.2h3.2V26H271zm-2.7 16c-1.9 0-2.8-1.3-2.8-3.9 0-2.8 1-4 2.8-4 1.7 0 3 1.1 3 3.9-.1 2.8-1.3 4-3 4zm-9.3-3.8c0-3.8-1.9-7-6.4-7-4.4 0-6.9 2.6-6.9 7.1 0 4.8 2.7 7 7 7 2.8 0 4.9-1 6-3.1l-2.6-1.6c-.7 1.3-1.7 2.1-3.1 2.1-2 0-3.1-.7-3.3-2.7h9.1c.1-1 .2-1.4.2-1.8zm-9.2-1.2c.2-2 1.2-2.8 2.8-2.8 1.6 0 2.4.8 2.5 2.8h-5.3zm-17.6 1.2c0-3.8-1.9-7-6.4-7-4.4 0-6.9 2.6-6.9 7.1 0 4.8 2.7 7 7 7 2.8 0 4.9-1 6-3.1l-2.6-1.6c-.7 1.3-1.7 2.1-3.1 2.1-2 0-3.1-.7-3.3-2.7h9.1c.2-1 .2-1.4.2-1.8zM223 37c.2-2 1.2-2.8 2.7-2.8 1.6 0 2.4.8 2.5 2.8H223zm-12-11v6.8c-1-1.2-1.9-1.9-3.7-1.9-3.6 0-5.8 2.5-5.8 7.3 0 4.6 2.3 7 5.8 7 2.2 0 3.8-.8 4.7-2.4l.3 2.2h3.7V26h-5zm-2.3 16c-1.9 0-2.8-1.3-2.8-3.9 0-2.8 1-4 2.8-4 1.7 0 3 1.1 3 3.9s-1.3 4-3 4zm-56-11c-4.5 0-7.1 2.2-7.1 7.1 0 4.8 2.4 7.2 7.1 7.2 4.7 0 7.1-2.4 7.1-7.2 0-4.9-2.3-7.1-7.1-7.1zm0 11.1c-2.1 0-3-1.1-3-4 0-2.8.9-3.9 3-3.9s3 1.1 3 3.9c.1 2.8-.9 4-3 4zm-24.1-3.9c0-3.8-1.9-7-6.4-7-4.4 0-6.9 2.6-6.9 7.1 0 4.8 2.7 7 7 7 2.8 0 4.9-1 6-3.1l-2.6-1.6c-.7 1.3-1.7 2.1-3.1 2.1-2 0-3.1-.7-3.3-2.7h9.1c.2-1 .2-1.4.2-1.8zm-9.2-1.2c.2-2 1.2-2.8 2.8-2.8 1.6 0 2.4.8 2.5 2.8h-5.3zm-9.6.8c2-1 3.2-2.8 3.2-5.6 0-3.8-2.2-6.2-6.5-6.2H97v19h4v-6h4.4l2.9 6h4.9l-3.4-7.2zm-4.1-2.8H101v-5h4.8c1.9 0 2.8.8 2.8 2.4 0 1.9-1.1 2.6-2.9 2.6z"/></svg>