<svg xmlns="http://www.w3.org/2000/svg"><defs><font id="Fort-Book" horiz-adv-x="625"><font-face font-family="Fort Book" font-weight="600" panose-1="1 0 0 0 0 0 0 0 0 0" ascent="750" descent="-250" x-height="487" cap-height="700" bbox="-102 -292 1422 949" underline-thickness="50" underline-position="-100" unicode-range="U+0020-EBA9"/><glyph glyph-name="fl" unicode="fl" horiz-adv-x="629" d="M116 0v420H26v67h90v59c0 123 59 172 156 172 27 0 57-5 79-14l-14-72c-18 7-34 12-59 12-48 0-78-23-78-103v-54h141v-67H200V0h-84zm418 700V0h-86v700h86z"/><glyph glyph-name="fi" unicode="fi" horiz-adv-x="629" d="M116 0v420H26v67h90v59c0 123 59 172 156 172 27 0 57-5 79-14l-14-72c-18 7-34 12-59 12-48 0-78-23-78-103v-54h141v-67H200V0h-84zm332 487h86V0h-86v487zm-16 151c0 37 22 56 59 56s59-19 59-56-22-57-59-57-59 20-59 57z"/><glyph glyph-name=".notdef" horiz-adv-x="914" d="M110 0v700h694V0H110zm309 348L178 623V73zm77 0L736 74v548zM238 643l220-253 219 253H238zm218-337L240 57h435z"/><glyph glyph-name="i" unicode="i" horiz-adv-x="276" d="M95 487h86V0H95v487zM79 638c0 37 22 56 59 56s59-19 59-56-22-57-59-57-59 20-59 57z"/><glyph glyph-name="O" unicode="O" horiz-adv-x="782" d="M77 351c0 256 104 361 314 361 219 0 315-105 315-361S601-12 391-12C177-12 77 95 77 351zm89-1c0-221 78-290 225-290s226 66 226 292c0 220-79 288-226 288s-225-64-225-290z"/><glyph glyph-name="H" unicode="H" horiz-adv-x="795" d="M596 0v313H199V0h-89v700h89V391h397v309h89V0h-89z"/><glyph glyph-name="C" unicode="C" horiz-adv-x="699" d="M392-12C184-12 77 90 77 351s107 361 315 361c125 0 207-36 255-132l-70-47c-38 81-96 107-185 107-144 0-226-61-226-288 0-226 82-292 226-292 91 0 155 30 201 117l66-45C602 28 514-12 392-12z"/><glyph glyph-name="I" unicode="I" horiz-adv-x="309" d="M110 0v700h89V0h-89z"/><glyph glyph-name="G" unicode="G" horiz-adv-x="743" d="M377-12C183-12 77 101 77 351c0 261 106 361 315 361 125 0 206-39 254-128l-71-48c-39 74-95 104-183 104-145 0-226-58-226-289 0-223 80-291 222-291 90 0 194 44 197 198v25H394v70h273V0h-74l-6 99C548 29 469-12 377-12z"/><glyph glyph-name="b" unicode="b" horiz-adv-x="614" d="M179 700V405c33 63 93 94 174 94 132 0 204-85 204-255 0-166-78-256-217-256-73 0-131 28-165 91l-5-79H93v700h86zm0-458c0-131 62-185 148-185 96 0 144 57 144 186s-49 187-141 187c-88 0-151-56-151-188z"/><glyph glyph-name="h" unicode="h" horiz-adv-x="630" d="M179 700V393c36 76 109 106 185 106 122 0 180-67 180-195V0h-86v282c0 103-44 144-120 144-96 0-157-66-159-183V0H93v700h86z"/><glyph glyph-name="d" unicode="d" horiz-adv-x="614" d="M442 0l-5 87c-32-66-93-99-175-99C129-12 57 78 57 244s77 255 216 255c72 0 128-28 162-82v283h86V0h-79zm-7 245c0 130-64 185-149 185-97 0-143-59-143-187S191 57 285 57c86 0 150 55 150 188z"/><glyph glyph-name="p" unicode="p" horiz-adv-x="614" d="M93 487h74l9-88c32 66 94 100 177 100 133 0 204-88 204-254S479-12 339-12c-71 0-127 27-160 81v-256H93v674zm86-244c0-131 61-186 147-186 97 0 145 60 145 187 0 129-48 186-141 186-87 0-151-55-151-187z"/><glyph glyph-name="q" unicode="q" horiz-adv-x="614" d="M521-186h-86V81c-34-61-93-93-174-93C130-12 57 74 57 243c0 165 77 256 216 256 74 0 131-30 164-92l9 80h75v-673zm-86 431c0 131-63 185-149 185-96 0-143-57-143-186S192 57 285 57c87 0 150 55 150 188z"/><glyph glyph-name="c" unicode="c" horiz-adv-x="532" d="M289-12C141-12 57 64 57 244c0 176 84 255 233 255 101 0 162-39 200-109l-62-40c-26 51-73 80-138 80-102 0-147-47-147-187 0-137 48-186 146-186 70 0 111 22 142 86l65-34C458 24 387-12 289-12z"/><glyph glyph-name="e" unicode="e" horiz-adv-x="547" d="M287-12C141-12 57 67 57 243c0 167 81 256 232 256 144 0 208-100 208-235 0-15-1-30-2-46H142c6-118 56-161 147-161 70 0 113 18 143 85l64-33C457 24 383-12 287-12zm-2 443c-84 0-133-41-142-147h269c-4 105-50 147-127 147z"/><glyph glyph-name="l" unicode="l" horiz-adv-x="276" d="M181 700V0H95v700h86z"/><glyph glyph-name="m" unicode="m" horiz-adv-x="929" d="M93 0v487h74l9-90c36 75 104 102 168 102 87 0 135-51 150-119 33 86 108 119 186 119 111 0 163-66 163-191V0h-86v286c0 101-37 139-103 139-85 0-141-59-144-172V0h-86v282c0 103-38 143-107 143-82 0-136-59-138-174V0H93z"/><glyph glyph-name="space" horiz-adv-x="235"/><glyph glyph-name="s" unicode="s" horiz-adv-x="511" d="M249 54c81 0 114 28 114 75 0 43-28 61-97 75l-44 9C104 239 63 290 63 358c0 80 56 141 186 141 86 0 136-27 177-78l-55-53c-34 43-66 63-128 63-68 0-100-23-100-67 0-34 19-62 89-77l55-12c122-26 157-73 157-140 0-75-45-147-196-147-95 0-164 26-208 99l61 44c35-57 79-77 148-77z"/><glyph glyph-name="S" unicode="S" horiz-adv-x="629" d="M552 588l-70-44c-37 68-87 99-175 99-117 0-158-48-158-111 0-58 32-104 134-128l65-15c152-35 221-93 221-201 0-132-95-200-257-200C196-12 99 22 38 124l70 44C160 91 215 57 310 57c122 0 174 45 174 124 0 70-34 97-149 126l-65 16C135 356 66 423 66 528c0 109 80 184 241 184 133 0 198-43 245-124z"/><glyph glyph-name="E" unicode="E" horiz-adv-x="666" d="M110 0v700h506v-76H197V391h367v-78H197V76h429V0H110z"/><glyph glyph-name="F" unicode="F" horiz-adv-x="614" d="M110 0v700h488v-76H199V388h358v-78H199V0h-89z"/><glyph glyph-name="D" unicode="D" horiz-adv-x="753" d="M199 76h171c133 0 218 66 218 275 0 204-77 273-211 273H199V76zM373 0H110v700h264c204 0 303-104 303-346C677 113 574 0 373 0z"/><glyph glyph-name="a" unicode="a" horiz-adv-x="572" d="M228-12C130-12 60 40 60 134c0 90 55 163 214 163h126c-2 101-45 133-131 133-71 0-113-27-141-65l-48 52c37 54 101 82 197 82 125 0 209-49 209-201V0h-74l-7 89C374 27 314-12 228-12zm19 69c90 0 152 63 153 172v2H275c-93 0-131-30-131-94 0-50 31-80 103-80z"/><glyph glyph-name="r" unicode="r" horiz-adv-x="381" d="M93 0v487h74l9-103c34 80 103 117 186 111v-82c-120 12-180-54-183-179V0H93z"/><glyph glyph-name="g" unicode="g" horiz-adv-x="613" d="M520 487V14c0-163-102-230-245-230-96 0-169 28-210 115l62 44c33-66 80-89 148-89 93 0 159 42 159 151v88C402 31 343 1 264 1 134 1 57 87 57 251c0 161 73 248 208 248 80 0 140-30 172-91l9 79h74zm-86-234c0 127-65 178-150 178-96 0-141-56-141-179 0-125 47-181 141-181 86 0 150 52 150 182z"/><glyph glyph-name="u" unicode="u" horiz-adv-x="626" d="M459 0l-7 86c-38-70-107-98-178-98C146-12 86 63 86 191v296h86V203c0-97 41-145 122-145 94 0 150 63 153 180v249h86V0h-74z"/><glyph glyph-name="B" unicode="B" horiz-adv-x="691" d="M110 0v700h293c149 0 206-73 206-181 0-77-39-132-102-156 83-17 120-90 120-163C627 69 550 0 392 0H110zm290 319H197V74h200c95 0 142 41 142 127 0 75-41 118-139 118zm3 307H197V396h202c87 0 122 53 122 116 0 80-45 114-118 114z"/><glyph glyph-name="L" unicode="L" horiz-adv-x="633" d="M199 76h407V0H110v700h89V76z"/><glyph glyph-name="N" unicode="N" horiz-adv-x="783" d="M581 0L193 569l3-569h-86v700h90l389-569-2 569h86V0h-92z"/><glyph glyph-name="M" unicode="M" horiz-adv-x="949" d="M439 0L192 547l3-547h-85v700h96l270-599 268 599h95V0h-86l4 547L510 0h-71z"/><glyph glyph-name="R" unicode="R" horiz-adv-x="676" d="M110 0v700h278c158 0 235-76 235-210 0-110-50-180-138-210L635 0h-98L395 265H199V0h-89zm278 624H199V342h188c92 0 147 47 147 145 0 87-47 137-146 137z"/><glyph glyph-name="T" unicode="T" horiz-adv-x="571" d="M12 700h547v-76H330V0h-89v624H12v76z"/><glyph glyph-name="U" unicode="U" horiz-adv-x="752" d="M571 271v429h89V275C660 86 553-12 376-12 197-12 92 86 92 275v425h89V271c0-150 77-211 195-211s195 61 195 211z"/><glyph glyph-name="W" unicode="W" horiz-adv-x="911" d="M413 698h87l158-569 160 571h86L699 0h-85L455 572 297 0h-86L7 700h91l157-575z"/><glyph glyph-name="f" unicode="f" horiz-adv-x="353" d="M26 487h90v59c0 123 59 172 156 172 27 0 57-5 79-14l-14-72c-18 7-34 12-59 12-48 0-78-23-78-103v-54h141v-67H200V0h-84v420H26v67z"/><glyph glyph-name="t" unicode="t" horiz-adv-x="360" d="M17 487h86v143h84V487h141v-67H187V165c0-86 34-103 82-103 25 0 40 4 59 10l14-70c-35-12-55-14-83-14-96 0-156 51-156 174v258H17v67z"/><glyph glyph-name="j" unicode="j" horiz-adv-x="276" d="M95-33v520h86V-44c0-119-58-172-153-172-26 0-47 3-77 13l14 72c18-7 33-11 58-11 45 0 72 23 72 109zM79 638c0 37 22 56 59 56s59-19 59-56-22-57-59-57-59 20-59 57z"/><glyph glyph-name="J" unicode="J" horiz-adv-x="509" d="M174-12C117-12 62 3 16 37l41 67c34-28 79-42 124-42 88 0 147 53 147 189v449h89V258C417 52 315-12 174-12z"/><glyph glyph-name="A" unicode="A" horiz-adv-x="622" d="M518 0l-48 143H149L101 0H10l245 700h112L612 0h-94zM308 619L174 218h270z"/><glyph glyph-name="V" unicode="V" horiz-adv-x="616" d="M7 700h94L309 81l209 619h91L364 0H252z"/><glyph glyph-name="v" unicode="v" horiz-adv-x="502" d="M7 487h91L253 82l154 405h88L299 0h-95z"/><glyph glyph-name="w" unicode="w" horiz-adv-x="732" d="M324 484h89L528 97l115 390h82L570 0h-91L366 387 255 0h-91L7 487h86L210 98z"/><glyph glyph-name="K" unicode="K" horiz-adv-x="641" d="M110 0v700h89V311l319 389h106L362 387 639 0H533L303 322 199 199V0h-89z"/><glyph glyph-name="Q" unicode="Q" horiz-adv-x="779" d="M568 26l87-118H554L488-2c-30-7-62-10-97-10C177-12 77 95 77 351s104 361 314 361c219 0 315-105 315-361 0-170-46-274-138-325zM166 350c0-221 78-290 225-290 17 0 33 1 48 3l-95 129h102l75-103c63 38 97 117 97 263 0 220-80 288-227 288s-225-64-225-290z"/><glyph glyph-name="k" unicode="k" horiz-adv-x="524" d="M93 0v700h86V225l232 262h104L314 269 517 0H415L259 211l-80-85V0H93z"/><glyph glyph-name="y" unicode="y" horiz-adv-x="502" d="M186-65l20 56L5 487h91L251 81l155 406h89L260-93c-39-95-99-123-175-123-26 0-47 3-78 13l14 72c22-7 38-11 65-11 31 0 74 7 100 77z"/><glyph glyph-name="Y" unicode="Y" horiz-adv-x="610" d="M261 280L10 700h96l201-346 200 346h93L350 280V0h-89v280z"/><glyph glyph-name="slash" unicode="/" horiz-adv-x="506" d="M501 700L97 0H5l403 700h93z"/><glyph glyph-name="hyphen" unicode="-" horiz-adv-x="431" d="M383 371v-72H49v72h334z"/><glyph glyph-name="period" unicode="." horiz-adv-x="230" d="M56 52c0 38 23 57 60 57 36 0 58-19 58-57 0-36-22-57-58-57-37 0-60 21-60 57z"/><glyph glyph-name="comma" unicode="," horiz-adv-x="230" d="M121-2s-4-1-8-1C78-3 56 18 56 53c0 38 23 56 57 56 38 0 61-23 61-83 0-72-33-137-102-156L55-91c39 13 62 46 66 89z"/><glyph glyph-name="X" unicode="X" horiz-adv-x="634" d="M517 0L315 291 112 0H13l252 358L29 700h103l188-275 186 275h99L369 360 621 0H517z"/><glyph glyph-name="x" unicode="x" horiz-adv-x="504" d="M19 487h102l134-180 132 180h99L302 249 497 0H395L250 190 106 0H7l196 250z"/><glyph glyph-name="z" unicode="z" horiz-adv-x="489" d="M40 0v64l297 354H45v69h394v-65L140 69h307V0H40z"/><glyph glyph-name="Z" unicode="Z" horiz-adv-x="570" d="M20 0v67l423 558-398-1v76h504v-67L123 75l429 1V0H20z"/><glyph glyph-name="at" unicode="@" horiz-adv-x="818" d="M683-2c-60-63-149-99-264-99C200-101 72 36 72 242c0 205 128 341 347 341 212 0 326-125 326-312 0-117-54-190-153-190-51 0-87 18-98 65-21-46-63-73-124-73-66 0-115 35-115 102 0 61 42 107 152 107h82c-2 69-32 89-91 89-49 0-78-17-96-43l-32 35c25 38 68 58 134 58 85 0 144-36 144-140v-94c0-44 16-66 58-66 56 0 96 50 96 148 0 184-115 275-283 275-180 0-303-103-303-302C116 41 239-61 420-61c99 0 182 29 237 88zM383 121c61 0 104 43 105 115v1h-83c-61 0-91-18-91-60 0-36 24-56 69-56z"/><glyph glyph-name="colon" unicode=":" horiz-adv-x="230" d="M56 52c0 38 23 57 60 57 36 0 58-19 58-57 0-36-22-57-58-57-37 0-60 21-60 57zm0 377c0 38 23 57 60 57 36 0 58-19 58-57 0-36-22-57-58-57-37 0-60 21-60 57z"/><glyph glyph-name="parenleft" unicode="(" horiz-adv-x="344" d="M305-17l-6-64C126-64 45 67 45 322s81 386 254 403l6-64c-118-18-180-106-180-339S187 1 305-17z"/><glyph glyph-name="parenright" unicode=")" horiz-adv-x="344" d="M45-81l-6 64C157 1 219 89 219 322S157 643 39 661l6 64c173-17 254-148 254-403S218-64 45-81z"/><glyph glyph-name="copyright" unicode="©" horiz-adv-x="833" d="M72 350c0 205 127 341 345 341 217 0 344-136 344-341S634 8 417 8C199 8 72 145 72 350zm44 0c0-200 122-302 301-302s301 102 301 302-122 302-301 302-301-102-301-302zm305-174c-111 0-170 56-170 177s59 179 170 179c73 0 118-28 145-77l-48-31c-18 35-51 56-97 56-71 0-105-38-105-127s34-123 105-123c50 0 78 14 99 57l50-26c-27-60-78-85-149-85z"/><glyph glyph-name="question" unicode="?" horiz-adv-x="507" d="M196 194v155h44c106 0 161 50 161 150 0 92-58 139-160 139-79 0-131-28-174-114L5 569c48 101 127 143 246 143 144 0 237-79 237-207 0-126-72-200-206-210V194h-86zM179 52c0 38 23 57 60 57 36 0 58-19 58-57 0-36-22-57-58-57-37 0-60 21-60 57z"/><glyph glyph-name="quoteright" unicode="’" horiz-adv-x="228" d="M122 612s-4-1-8-1c-35 0-57 21-57 56 0 38 23 56 57 56 38 0 61-23 61-83 0-72-33-137-102-156l-17 39c39 13 62 46 66 89z"/><glyph glyph-name="quoteleft" unicode="‘" horiz-adv-x="228" d="M109 607s4 1 8 1c35 0 57-21 57-56 0-38-23-56-57-56-38 0-61 23-61 83 0 72 33 137 102 156l17-39c-39-13-62-46-66-89z"/><glyph glyph-name="quotedblright" unicode="”" horiz-adv-x="384" d="M119 611s-4-1-8-1c-35 0-57 21-57 56 0 38 23 56 57 56 38 0 61-23 61-83 0-72-33-137-102-156l-17 39c39 13 62 46 66 89zm158 0s-4-1-8-1c-35 0-57 21-57 56 0 38 23 56 57 56 38 0 61-23 61-83 0-72-33-137-102-156l-17 39c39 13 62 46 66 89z"/><glyph glyph-name="quotedblleft" unicode="“" horiz-adv-x="384" d="M109 607s4 1 8 1c35 0 57-21 57-56 0-38-23-56-57-56-38 0-61 23-61 83 0 72 33 137 102 156l17-39c-39-13-62-46-66-89zm156 0s4 1 8 1c35 0 57-21 57-56 0-38-23-56-57-56-38 0-61 23-61 83 0 72 33 137 102 156l17-39c-39-13-62-46-66-89z"/><glyph glyph-name="n" unicode="n" horiz-adv-x="630" d="M93 487h75l9-93c37 76 108 105 187 105 122 0 180-67 180-195V0h-86v284c0 102-43 142-120 142-95 0-156-66-159-183V0H93v487z"/><glyph glyph-name="o" unicode="o" horiz-adv-x="586" d="M443 244c0 138-48 186-150 186-104 0-150-48-150-186 0-137 48-187 150-187s150 50 150 187zm-386 1c0 176 85 254 236 254 158 0 236-76 236-254 0-175-82-257-236-257C140-12 57 65 57 245z"/><glyph glyph-name="ampersand" unicode="&amp;" horiz-adv-x="708" d="M564 476h82c0-141-28-255-80-337 41-29 86-58 136-90l-41-61c-53 33-100 62-143 92-61-60-142-92-243-92C141-12 36 44 36 174c0 106 67 153 144 201-60 79-75 139-75 182 0 98 64 155 188 155 116 0 166-48 166-132 0-94-64-150-167-217 47-51 115-110 210-179 42 69 65 167 62 292zM281 57c67 0 127 22 174 67-103 75-177 140-229 197-60-38-104-75-104-143 0-74 58-121 159-121zm-94 496c0-32 12-77 59-137 92 60 132 95 132 152 0 50-29 76-89 76-69 0-102-34-102-91z"/><glyph glyph-name="questiondown" unicode="¿" horiz-adv-x="507" d="M303 304V149h-44C153 149 98 99 98-1c0-92 58-139 160-139 79 0 131 28 174 114l62-45c-48-101-127-143-246-143C104-214 11-135 11-7c0 126 72 200 206 210v101h86zm17 142c0-38-23-57-60-57-36 0-58 19-58 57 0 36 22 57 58 57 37 0 60-21 60-57z"/><glyph glyph-name="fraction" unicode="⁄" horiz-adv-x="506" d="M462 700L124 0H43l339 700h80z"/><glyph glyph-name="exclam" unicode="!" horiz-adv-x="227" d="M161 700l-12-506H78L66 700h95zM55 52c0 38 22 57 59 57 36 0 59-19 59-57 0-36-23-57-59-57-37 0-59 21-59 57z"/><glyph glyph-name="exclamdown" unicode="¡" horiz-adv-x="227" d="M66-202l12 506h71l12-506H66zm106 648c0-38-22-57-59-57-36 0-59 19-59 57 0 36 23 57 59 57 37 0 59-21 59-57z"/><glyph glyph-name="bar" unicode="|" horiz-adv-x="297" d="M110-65v831h78V-65h-78z"/><glyph glyph-name="bracketleft" unicode="[" horiz-adv-x="339" d="M72-105v821h224v-65H150V-40h149v-65H72z"/><glyph glyph-name="bracketright" unicode="]" horiz-adv-x="339" d="M267 716v-821H40v65h149v691H43v65h224z"/><glyph glyph-name="braceleft" unicode="{" horiz-adv-x="347" d="M293-82C192-73 139-30 139 62c0 43 10 80 10 119 0 76-34 108-105 108H9v65h35c71 0 105 32 105 108 0 39-10 76-10 120 0 91 53 134 154 143l6-65c-52-7-81-30-81-85 0-41 9-80 9-122 0-67-29-109-87-131 58-23 87-66 87-132 0-42-9-81-9-121 0-56 29-79 81-86z"/><glyph glyph-name="braceright" unicode="}" horiz-adv-x="347" d="M52-82l-6 65c52 7 81 30 81 86 0 40-9 79-9 121 0 66 29 109 87 132-58 22-87 64-87 131 0 42 9 81 9 122 0 55-29 78-81 85l6 65c101-9 154-52 154-143 0-44-10-81-10-120 0-76 34-108 105-108h35v-65h-35c-71 0-105-32-105-108 0-39 10-76 10-119 0-92-53-135-154-144z"/><glyph glyph-name="bullet" unicode="•" horiz-adv-x="431" d="M60 327c0 92 58 153 156 153 97 0 155-61 155-153 0-93-58-153-155-153-98 0-156 60-156 153z"/><glyph glyph-name="registered" unicode="®" horiz-adv-x="473" d="M48 525c0 112 69 187 189 187 119 0 189-75 189-187s-70-187-189-187c-120 0-189 75-189 187zm30 0c0-106 65-162 159-162 93 0 158 56 158 162 0 105-65 161-158 161-94 0-159-56-159-161zm87-88v184h78c45 0 69-23 69-59 0-32-14-50-37-59l36-66h-38l-33 61h-41v-61h-34zm78 155h-44v-65h39c25 0 39 8 39 33 0 20-11 32-34 32z"/><glyph glyph-name="AE" unicode="Æ" horiz-adv-x="927" d="M511 0l-46 143H149L101 0H10l249 700h618v-76H403l76-233h345v-78H504l77-237h306V0H511zM314 623L176 218h266z"/><glyph glyph-name="semicolon" unicode=";" horiz-adv-x="230" d="M121-2s-4-1-8-1C78-3 56 18 56 53c0 38 23 56 57 56 38 0 61-23 61-83 0-72-33-137-102-156L55-91c39 13 62 46 66 89zM57 429c0 38 23 57 60 57 36 0 58-19 58-57 0-36-22-57-58-57-37 0-60 21-60 57z"/><glyph glyph-name="ellipsis" unicode="…" horiz-adv-x="691" d="M56 52c0 38 23 57 60 57 36 0 58-19 58-57 0-36-22-57-58-57-37 0-60 21-60 57zm230 0c0 38 23 57 60 57s59-19 59-57c0-36-22-57-59-57s-60 21-60 57zm231 0c0 38 23 57 59 57 37 0 59-19 59-57 0-36-22-57-59-57-36 0-59 21-59 57z"/><glyph glyph-name="degree" unicode="°" horiz-adv-x="467" d="M52 531c0 109 66 181 183 181 114 0 182-72 182-181 0-108-68-181-182-181-117 0-183 73-183 181zm67 0c0-81 46-123 116-123 67 0 114 42 114 123s-47 123-114 123c-70 0-116-42-116-123z"/><glyph glyph-name="trademark" unicode="™" horiz-adv-x="686" d="M312 406v294h60l104-236 106 236h59V406h-53v198l-89-198h-46l-89 194 2-194h-54zM24 700h250v-47h-98V406h-54v247H24v47z"/><glyph glyph-name="brokenbar" unicode="¦" horiz-adv-x="297" d="M110 388v378h78V388h-78zm0-453v379h78V-65h-78z"/><glyph glyph-name="emdash" unicode="—" horiz-adv-x="788" d="M740 371v-72H49v72h691z"/><glyph glyph-name="endash" unicode="–" horiz-adv-x="588" d="M540 371v-72H49v72h491z"/><glyph glyph-name="acute" unicode="´" horiz-adv-x="600" d="M436 685L322 574h-73v4l76 113h111v-6z"/><glyph glyph-name="breve" unicode="˘" horiz-adv-x="600" d="M376 691h66c0-94-54-123-142-123-89 0-143 29-143 123h66c0-52 26-68 76-68 51 0 77 16 77 68z"/><glyph glyph-name="caron" unicode="ˇ" horiz-adv-x="600" d="M299 624l71 67h93v-2L340 574h-83L135 689v2h96z"/><glyph glyph-name="cedilla" unicode="¸" horiz-adv-x="600" d="M300 0h61l-17-61h3c46 0 87-29 87-84 0-62-53-92-115-92-50 0-93 18-118 59l42 40c19-30 37-46 73-46 31 0 54 12 54 39 0 26-21 42-54 42-8 0-15-1-23-2l-16 15z"/><glyph glyph-name="circumflex" unicode="ˆ" horiz-adv-x="600" d="M298 643l-70-69h-93v3l122 114h83l123-114v-3h-98z"/><glyph glyph-name="commaaccent" unicode="" horiz-adv-x="600" d="M258-292l-17 40c38 11 59 41 63 80h-5c-38 0-59 19-59 55 0 35 22 53 56 53 38 0 61-23 61-81 0-68-31-129-99-147z"/><glyph glyph-name="commaaccent" unicode="" horiz-adv-x="600" d="M258-292l-17 40c38 11 59 41 63 80h-5c-38 0-59 19-59 55 0 35 22 53 56 53 38 0 61-23 61-81 0-68-31-129-99-147z"/><glyph glyph-name="dieresis" unicode="¨" horiz-adv-x="600" d="M159 637c0 37 23 56 60 56s59-19 59-56-22-57-59-57-60 20-60 57zm173 0c0 37 23 56 60 56s59-19 59-56-22-57-59-57-60 20-60 57z"/><glyph glyph-name="dotaccent" unicode="˙" horiz-adv-x="600" d="M242 637c0 37 23 56 60 56s59-19 59-56-22-57-59-57-60 20-60 57z"/><glyph glyph-name="grave" unicode="`" horiz-adv-x="600" d="M275 574L160 685v6h111l77-113v-4h-73z"/><glyph glyph-name="hungarumlaut" unicode="˝" horiz-adv-x="600" d="M350 685l-92-111h-70v4l62 113h100v-6zm157 0L387 574h-70v4l77 113h113v-6z"/><glyph glyph-name="macron" unicode="¯" horiz-adv-x="600" d="M431 660v-59H177v59h254z"/><glyph glyph-name="ogonek" unicode="˛" horiz-adv-x="600" d="M308-212c-59 0-116 23-116 101 0 97 88 149 157 148l4-37c-62-5-96-55-96-101 0-37 21-50 58-50 24 0 46 6 66 18l13-56c-25-15-53-23-86-23z"/><glyph glyph-name="ring" unicode="˚" horiz-adv-x="600" d="M206 641c0 58 41 94 97 94 55 0 96-36 96-94s-41-94-97-94c-55 0-96 36-96 94zm48 0c0-30 20-53 48-53s49 23 49 53c0 31-21 52-48 52-29 0-49-21-49-52z"/><glyph glyph-name="tilde" unicode="˜" horiz-adv-x="600" d="M398 684h65c6-77-45-101-88-101-56 0-95 41-131 41-24 0-29-18-29-37h-66c-4 77 43 101 87 101 59 0 97-41 133-41 24 0 29 17 29 37z"/><glyph glyph-name="ae" unicode="æ" horiz-adv-x="891" d="M228-12C130-12 60 40 60 134c0 87 55 158 214 158h126c-1 105-44 138-131 138-71 0-113-27-141-65l-48 52c37 54 101 82 197 82 80 0 143-22 175-84 37 55 97 84 179 84 143 0 207-99 207-228 0-15 0-30-2-45H483c4-124 55-169 148-169 70 0 113 18 143 85l64-33C799 24 725-12 629-12c-95 0-163 36-196 114C401 32 331-12 228-12zm19 69c88 0 152 62 153 169H275c-93 0-131-30-131-94 0-47 31-75 103-75zm380 374c-82 0-132-39-142-139h268c-6 102-50 139-126 139z"/><glyph glyph-name="oe" unicode="œ" horiz-adv-x="937" d="M57 245c0 176 85 254 236 254 95 0 160-29 196-92 37 61 101 92 189 92 144 0 208-100 208-235 0-15-1-30-2-46H530c6-118 57-161 148-161 70 0 113 18 143 85l64-33C846 24 772-12 676-12c-88 0-152 29-189 92-38-62-103-92-194-92C140-12 57 65 57 245zm386-1c0 138-48 186-150 186-104 0-150-48-150-186 0-137 48-187 150-187s150 50 150 187zm231 187c-84 0-134-41-143-147h270c-4 105-50 147-127 147z"/><glyph glyph-name="eth" unicode="ð" horiz-adv-x="592" d="M479 718l32-47-80-51c72-86 99-209 99-366v-12c0-174-81-254-235-254C142-12 57 63 57 242c0 176 87 254 238 254 58 0 102-15 135-47-12 50-33 94-65 130l-83-53-31 47 72 47c-35 27-78 47-131 61l28 59c69-16 125-42 170-80zm-35-476c0 135-47 186-149 186-104 0-152-51-152-186S193 57 295 57s149 50 149 185z"/><glyph glyph-name="thorn" unicode="þ" horiz-adv-x="615" d="M179 700V405c33 62 94 94 174 94 133 0 204-88 204-254S479-12 339-12c-71 0-127 27-160 81v-256H93v887h86zm0-457c0-131 61-186 147-186 97 0 145 60 145 187 0 129-48 186-141 186-87 0-151-55-151-187z"/><glyph glyph-name="OE" unicode="Œ" horiz-adv-x="1104" d="M1064 0H383C176 0 76 113 76 354c0 242 100 346 309 346h669v-76H643V391h359v-78H643V76h421V0zM386 76h168v548H382c-139 0-217-69-217-273 0-209 83-275 221-275z"/><glyph glyph-name="section" unicode="§" horiz-adv-x="519" d="M260-23C174-23 107-1 65 70l61 41c33-52 71-70 134-70 80 0 108 29 108 74 0 38-23 61-98 78l-44 10C115 230 77 283 77 349c0 45 19 94 83 112-49 28-68 68-68 113 0 70 38 138 169 138 80 0 123-23 163-69l-54-50c-31 38-59 56-112 56-66 0-91-28-91-72 0-32 22-64 85-80l53-13c114-29 158-70 158-144 0-45-20-91-86-111 49-25 71-60 71-112 0-68-40-139-188-140zm122 356c1 38-22 70-100 84l-30 6c-69 12-98-30-99-69-1-32 21-69 82-80l30-6c70-13 116 12 117 65z"/><glyph glyph-name="quotesinglbase" unicode="‚" horiz-adv-x="226" d="M120-1s-4-1-8-1C77-2 56 19 56 53c0 37 22 55 56 55 37 0 60-23 60-82 0-70-33-134-100-152L55-88c38 13 61 45 65 87z"/><glyph glyph-name="quotedblbase" unicode="„" horiz-adv-x="382" d="M120-2s-4-1-8-1C77-3 56 18 56 52c0 37 22 55 56 55 37 0 60-23 60-82 0-70-33-134-100-152L55-89c38 13 61 45 65 87zm156 0s-4-1-8-1c-35 0-56 21-56 55 0 37 22 55 56 55 37 0 60-23 60-82 0-70-33-134-100-152l-17 38c38 13 61 45 65 87z"/><glyph glyph-name="P" unicode="P" horiz-adv-x="672" d="M110 0v700h279c161 0 240-80 240-220 0-154-86-235-250-235H199V0h-89zm280 624H199V321h190c94 0 151 52 151 156 0 94-49 147-150 147z"/><glyph glyph-name="paragraph" unicode="¶" horiz-adv-x="660" d="M595 700V0h-86v245h-73V0h-87v245h-5c-168 0-256 81-256 235 0 140 81 220 246 220h261zm-86-75h-73V322h73v303zM174 477c0-104 57-155 151-155h24v303h-25c-101 0-150-54-150-148z"/><glyph glyph-name="oslash" unicode="ø" horiz-adv-x="596" d="M580 487l-81-83c23-40 35-93 35-159 0-175-82-257-236-257-66 0-118 15-157 46L108 0H21l78 81c-25 40-37 95-37 164 0 176 85 254 236 254 69 0 122-16 161-47l34 35h87zM448 244c0 38-4 69-11 95L194 89c25-23 59-32 104-32 102 0 150 50 150 187zM160 144l244 252c-24 24-60 34-106 34-104 0-150-48-150-186 0-41 4-74 12-100z"/><glyph glyph-name="Oslash" unicode="Ø" horiz-adv-x="792" d="M140 0H45l91 104c-36 58-54 139-54 247 0 256 104 361 314 361 95 0 167-20 218-64l46 52h94l-94-107c34-58 51-137 51-242C711 95 606-12 396-12c-92 0-162 19-213 61zm256 60c147 0 226 66 226 292 0 72-8 127-25 169L238 111c37-37 90-51 158-51zm0 580c-147 0-225-64-225-290 0-76 9-133 27-176l361 410c-38 40-93 56-163 56z"/><glyph glyph-name="Lslash" unicode="Ł" horiz-adv-x="653" d="M219 76h407V0H130v251L25 185v81l105 66v368h89V388l177 111v-82L219 306V76z"/><glyph glyph-name="lslash" unicode="ł" horiz-adv-x="306" d="M196 700V411l108 85v-82l-108-84V0h-86v263l-97-75v81l97 76v355h86z"/><glyph glyph-name="germandbls" unicode="ß" horiz-adv-x="622" d="M342 342h-51v68h51c78 0 105 52 105 115 0 82-49 116-131 116-93 0-142-57-142-161V0H88v487c0 145 87 225 227 225 138 0 217-69 217-184 0-66-27-115-69-144 76-24 116-87 116-174C579 82 496-5 360-6c-37 0-65 4-98 17l17 69c25-9 43-14 70-14 93 0 145 47 145 141 0 79-36 135-152 135z"/><glyph glyph-name="dotlessi" unicode="ı" horiz-adv-x="276" d="M95 487h86V0H95v487z"/><glyph glyph-name="dotlessj" unicode="ȷ" horiz-adv-x="276" d="M95-33v520h86V-44c0-119-58-172-153-172-26 0-47 3-77 13l14 72c18-7 33-11 58-11 45 0 72 23 72 109z"/><glyph glyph-name="dagger" unicode="†" horiz-adv-x="308" d="M258 527h-68l-1-231h-71v231H49v63h68l-3 120h80l-3-120h67v-63z"/><glyph glyph-name="daggerdbl" unicode="‡" horiz-adv-x="308" d="M49 476h70v60H49v63h68l-3 111h80l-4-111h68v-63h-69v-60h69v-63h-68l4-117h-80l3 117H49v63z"/><glyph glyph-name="guilsinglleft" unicode="‹" horiz-adv-x="414" d="M246 0L55 242v3l191 242h98L152 246 347 0H246z"/><glyph glyph-name="guillemotleft" unicode="«" horiz-adv-x="634" d="M247 0L55 242v3l191 242h98L152 246 348 0H247zm219 0L268 244v3l192 240h99L365 248 566 0H466z"/><glyph glyph-name="guilsinglright" unicode="›" horiz-adv-x="414" d="M168 487l191-242v-3L168 0H70l192 241L67 487h101z"/><glyph glyph-name="guillemotright" unicode="»" horiz-adv-x="634" d="M387 487l192-242v-3L388 0h-98l192 241-196 246h101zm-219 0l198-244v-3L174 0H75l194 239L68 487h100z"/><glyph glyph-name="asciitilde" unicode="~" horiz-adv-x="532" d="M432 415l76-10c-5-90-57-134-134-134-43 0-84 19-121 38-31 15-61 30-90 30-33 0-57-21-61-66l-76 10c5 91 58 134 136 134 45 0 85-19 121-37 31-15 60-29 88-29 34 0 58 20 61 64z"/><glyph glyph-name="quotesingle" unicode="'" horiz-adv-x="187" d="M63 501l-7 211h80l-6-211H63z"/><glyph glyph-name="quotedbl" unicode="&quot;" horiz-adv-x="309" d="M130 501H63l-7 211h80zm54 0l-7 211h81l-8-211h-66z"/><glyph glyph-name="exclamdown.cap" unicode="" horiz-adv-x="231" d="M70 0l12 506h71L165 0H70zm106 648c0-38-22-57-59-57-36 0-59 19-59 57 0 36 23 57 59 57 37 0 59-21 59-57z"/><glyph glyph-name="questiondown.cap" unicode="" horiz-adv-x="503" d="M294 510V355h-44c-106 0-161-50-161-150 0-92 58-139 160-139 79 0 131 28 174 114l62-45C437 34 358-8 239-8 95-8 2 71 2 199c0 126 72 200 206 210v101h86zm17 142c0-38-23-57-60-57-36 0-58 19-58 57 0 36 22 57 58 57 37 0 60-21 60-57z"/><glyph glyph-name="caronSlovak" unicode="" horiz-adv-x="600" d="M318 481h-59l7 220h84z"/><glyph glyph-name="asterisk" unicode="*" horiz-adv-x="417" d="M120 349l-57 45 91 109-129 33 19 69 127-44-7 151h79l-9-151 129 44 19-68-128-34 90-109-57-45-84 116z"/><glyph glyph-name="y.school" unicode="" horiz-adv-x="613" d="M275-216c-96 0-169 28-210 115l62 44c33-66 80-89 148-89 93 0 159 42 159 151v81C399 24 337-1 273-1 146-1 87 74 87 202v285h86V214c0-97 39-145 117-145 88 0 141 64 143 180v238h86V14c0-163-101-230-244-230z"/><glyph glyph-name="Thorn" unicode="Þ" horiz-adv-x="653" d="M110 0v700h89V569h186c152 0 225-74 225-204 0-144-86-218-236-218H199V0h-89zm275 492H199V223h185c87 0 137 44 137 136 0 85-43 133-136 133z"/><glyph glyph-name="zero" unicode="0" horiz-adv-x="621" d="M310 612c164 0 250-91 250-313 0-217-86-311-250-311C147-12 61 80 61 300c0 222 86 312 249 312zm0-70c-105 0-163-54-163-242 0-186 58-242 163-242 107 0 164 55 164 242 0 184-57 242-164 242z"/><glyph glyph-name="one" unicode="1" horiz-adv-x="306" d="M218 0h-84v489l-88-64-37 69 155 106h54V0z"/><glyph glyph-name="two" unicode="2" horiz-adv-x="514" d="M52 0v71l192 185c90 87 126 134 126 194 0 65-43 93-113 93-68 0-114-36-147-105l-62 44c41 86 107 130 215 130 125 0 192-58 192-155 0-76-47-143-157-251L158 68l315 2V0H52z"/><glyph glyph-name="three" unicode="3" horiz-adv-x="584" d="M270-113C157-113 84-75 39 6l62 49c35-67 87-99 166-99 106 0 167 48 167 145 0 79-44 126-135 126h-94v76h91c70 0 117 45 117 120 0 82-53 120-144 120-73 0-117-30-156-106l-62 47c46 88 114 128 226 128 136 0 222-59 222-186 0-65-32-125-95-158 75-22 116-80 116-161 0-126-76-220-250-220z"/><glyph glyph-name="four" unicode="4" horiz-adv-x="607" d="M35 83v57l222 460h86L126 152h277v326h84V152h99V83h-99v-183h-84V83H35z"/><glyph glyph-name="five" unicode="5" horiz-adv-x="562" d="M172 526l-21-221c41 27 96 40 149 40 119 0 226-60 226-219 0-139-89-238-252-238C166-112 86-74 41 8l62 48c37-67 91-100 171-100 102 0 166 68 166 168 0 103-56 151-162 151-64 0-117-23-162-60l-49 26 35 359h387v-74H172z"/><glyph glyph-name="six" unicode="6" horiz-adv-x="643" d="M350-12C190-12 81 94 81 348c0 256 101 364 273 364 105 0 177-36 216-114l-65-47c-34 64-85 91-155 91-104 0-184-67-184-302v-26c26 78 103 125 193 125 142 0 224-79 224-218S505-12 350-12zM191 209c0-90 58-152 155-152 88 0 151 49 151 156 0 99-49 156-153 156-92 0-153-65-153-160z"/><glyph glyph-name="seven" unicode="7" horiz-adv-x="474" d="M155-100c0 222 80 476 219 624H34v76h445v-77c-150-93-240-367-241-623h-83z"/><glyph glyph-name="eight" unicode="8" horiz-adv-x="620" d="M309-12C157-12 69 66 69 192c0 97 55 154 128 172-64 23-106 78-106 160 0 124 77 188 218 188 142 0 219-64 219-187 0-82-41-138-105-161 72-19 127-75 127-172 0-126-88-204-241-204zm157 207c0 86-59 133-156 133-98 0-157-47-157-133 0-90 55-136 156-136s157 46 157 136zm-21 329c0 80-47 121-136 121s-135-41-135-121c0-75 44-123 135-123 93 0 136 49 136 123z"/><glyph glyph-name="nine" unicode="9" horiz-adv-x="642" d="M295-112C190-112 118-76 79 2l65 47c34-64 85-91 155-91 104 0 184 67 184 302v26c-26-81-103-130-193-130-142 0-224 81-224 223 0 139 78 233 233 233 160 0 269-106 269-360 0-256-101-364-273-364zm163 503c0 90-58 152-155 152-88 0-151-51-151-161 0-99 49-156 153-156 92 0 153 67 153 165z"/><glyph glyph-name="dollar" unicode="$" horiz-adv-x="588" d="M264-62v82C173 27 99 63 49 146l63 42c44-61 86-89 152-96v231C127 357 75 424 75 511c0 95 61 160 189 169v86h71v-87c89-7 145-43 184-108l-66-43c-28 48-62 73-118 80V385c140-35 198-82 198-181 0-114-73-174-198-184v-82h-71zm186 261c0 58-30 85-115 108V91c79 9 115 46 115 108zM155 515c0-54 28-92 109-113v207c-74-6-109-38-109-94z"/><glyph glyph-name="cent" unicode="¢" horiz-adv-x="549" d="M257-62v77C134 28 66 101 66 257c0 153 68 228 191 241v80h71v-79c79-7 129-43 161-103l-62-40c-20 40-54 65-99 72V83c50 6 81 29 107 80l65-34C467 56 408 21 328 14v-76h-71zM152 256c0-110 34-159 105-171v343c-73-12-105-60-105-172z"/><glyph glyph-name="sterling" unicode="£" horiz-adv-x="569" d="M34 0v69h38c48 0 53 41 51 113l-4 120H34v68h83l-3 117c-4 151 75 225 214 225 94 0 155-41 193-117l-66-43c-27 58-67 91-129 91-87 0-129-49-126-157l4-116h188v-68H207l3-124c1-49-4-88-23-109h177c61 0 99 17 134 61l48-48C502 23 450 0 366 0H34z"/><glyph glyph-name="florin" unicode="ƒ" horiz-adv-x="380" d="M65-38l54 344H32l10 66h87l13 76c19 122 83 172 178 172 27 0 59-5 80-14l-25-72c-17 7-32 11-56 11-47 0-80-22-93-102l-12-71h138l-10-66H204L150-44C131-162 70-216-25-216c-26 0-55 4-77 13l25 72c17-7 30-11 54-11 44 0 75 23 88 104z"/><glyph glyph-name="yen" unicode="¥" horiz-adv-x="610" d="M547 287v-68H350V0h-89v219H64v68h193l-34 56H64v68h119L10 700h96l201-346 200 346h93L428 411h119v-68H387l-33-56h193z"/><glyph glyph-name="Euro" unicode="€" horiz-adv-x="682" d="M390-12C221-12 122 61 95 241H5v68h84c-1 13-1 27-1 42v14H5v68h87c20 199 120 279 298 279 121 0 200-38 247-138l-70-48c-38 86-92 115-177 115-118 0-192-48-209-208h315l-17-68H177v-13c0-15 0-30 1-43h287l-17-68H185c23-137 94-180 205-180 84 0 144 28 186 108l67-44C588 27 506-12 390-12z"/><glyph glyph-name="aogonek" unicode="ą" horiz-adv-x="572" d="M440-212c-59 0-116 23-116 101 0 65 39 110 86 132l-5 68C374 27 314-12 228-12 130-12 60 40 60 134c0 90 55 163 214 163h126c-2 101-45 133-131 133-71 0-113-27-141-65l-48 52c37 54 101 82 197 82 125 0 209-49 209-201V0h-1c-62-5-96-55-96-101 0-37 21-50 58-50 24 0 46 6 66 18l13-56c-25-15-53-23-86-23zM247 57c90 0 152 63 153 172v2H275c-93 0-131-30-131-94 0-50 31-80 103-80z"/><glyph glyph-name="cacute" unicode="ć" horiz-adv-x="532" d="M436 685L322 574h-73v4l76 113h111v-6zM289-12C141-12 57 64 57 244c0 176 84 255 233 255 101 0 162-39 200-109l-62-40c-26 51-73 80-138 80-102 0-147-47-147-187 0-137 48-186 146-186 70 0 111 22 142 86l65-34C458 24 387-12 289-12z"/><glyph glyph-name="ccaron" unicode="č" horiz-adv-x="532" d="M290 624l71 67h93v-2L331 574h-83L126 689v2h96zm-1-636C141-12 57 64 57 244c0 176 84 255 233 255 101 0 162-39 200-109l-62-40c-26 51-73 80-138 80-102 0-147-47-147-187 0-137 48-186 146-186 70 0 111 22 142 86l65-34C458 24 387-12 289-12z"/><glyph glyph-name="ccedilla" unicode="ç" horiz-adv-x="532" d="M496 109C462 33 402-3 321-10l-14-51h3c46 0 87-29 87-84 0-62-53-92-115-92-50 0-93 18-118 59l42 40c19-30 37-46 73-46 31 0 54 12 54 39 0 26-21 42-54 42-8 0-15-1-23-2l-16 15 20 79C130-1 57 76 57 244c0 176 84 255 233 255 101 0 162-39 200-109l-62-40c-26 51-73 80-138 80-102 0-147-47-147-187 0-137 48-186 146-186 70 0 111 22 142 86z"/><glyph glyph-name="ccircumflex" unicode="ĉ" horiz-adv-x="532" d="M290 643l-70-69h-93v3l122 114h83l123-114v-3h-98zm-1-655C141-12 57 64 57 244c0 176 84 255 233 255 101 0 162-39 200-109l-62-40c-26 51-73 80-138 80-102 0-147-47-147-187 0-137 48-186 146-186 70 0 111 22 142 86l65-34C458 24 387-12 289-12z"/><glyph glyph-name="cdotaccent" unicode="ċ" horiz-adv-x="532" d="M289-12C141-12 57 64 57 244c0 176 84 255 233 255 101 0 162-39 200-109l-62-40c-26 51-73 80-138 80-102 0-147-47-147-187 0-137 48-186 146-186 70 0 111 22 142 86l65-34C458 24 387-12 289-12zm-58 649c0 37 23 56 60 56s59-19 59-56-22-57-59-57-60 20-60 57z"/><glyph glyph-name="dcaron" unicode="ď" horiz-adv-x="662" d="M665 480h-59l7 220h84zM442 0l-5 87c-32-66-93-99-175-99C129-12 57 78 57 244s77 255 216 255c72 0 128-28 162-82v283h86V0h-79zm-7 245c0 130-64 185-149 185-97 0-143-59-143-187S191 57 285 57c86 0 150 55 150 188z"/><glyph glyph-name="dcroat" unicode="đ" horiz-adv-x="631" d="M600 615v-58h-79V0h-79l-5 87c-32-65-93-99-175-99C129-12 57 78 57 244s77 255 216 255c72 0 128-27 162-81v139H278v58h157v85h86v-85h79zM435 245c0 130-64 186-149 186-97 0-143-60-143-188 0-127 48-186 142-186 86 0 150 56 150 188z"/><glyph glyph-name="eng" unicode="ŋ" horiz-adv-x="630" d="M458-33v317c0 102-43 142-120 142-95 0-156-66-159-183V0H93v487h75l10-91c36 75 107 103 186 103 122 0 180-67 180-195V-44c0-119-58-172-153-172-26 0-46 3-76 13l14 72c17-7 32-11 57-11 45 0 72 23 72 109z"/><glyph glyph-name="gbreve" unicode="ğ" horiz-adv-x="613" d="M520 487V14c0-163-102-230-245-230-96 0-169 28-210 115l62 44c33-66 80-89 148-89 93 0 159 42 159 151v88C402 31 343 1 264 1 134 1 57 87 57 251c0 161 73 248 208 248 80 0 140-30 172-91l9 79h74zm-86-234c0 127-65 178-150 178-96 0-141-56-141-179 0-125 47-181 141-181 86 0 150 52 150 182zm-81 438h66c0-94-54-123-142-123-89 0-143 29-143 123h66c0-52 26-68 76-68 51 0 77 16 77 68z"/><glyph glyph-name="gcircumflex" unicode="ĝ" horiz-adv-x="613" d="M279 643l-70-69h-93v3l122 114h83l123-114v-3h-98zm241-156V14c0-163-102-230-245-230-96 0-169 28-210 115l62 44c33-66 80-89 148-89 93 0 159 42 159 151v88C402 31 343 1 264 1 134 1 57 87 57 251c0 161 73 248 208 248 80 0 140-30 172-91l9 79h74zm-86-234c0 127-65 178-150 178-96 0-141-56-141-179 0-125 47-181 141-181 86 0 150 52 150 182z"/><glyph glyph-name="gcommaaccent" unicode="ģ" horiz-adv-x="613" d="M318 792l17-40c-38-11-59-41-63-80h5c38 0 59-19 59-55 0-35-22-53-56-53-38 0-61 23-61 81 0 68 31 129 99 147zm202-305V14c0-163-102-230-245-230-96 0-169 28-210 115l62 44c33-66 80-89 148-89 93 0 159 42 159 151v88C402 31 343 1 264 1 134 1 57 87 57 251c0 161 73 248 208 248 80 0 140-30 172-91l9 79h74zm-86-234c0 127-65 178-150 178-96 0-141-56-141-179 0-125 47-181 141-181 86 0 150 52 150 182z"/><glyph glyph-name="gdotaccent" unicode="ġ" horiz-adv-x="613" d="M520 487V14c0-163-102-230-245-230-96 0-169 28-210 115l62 44c33-66 80-89 148-89 93 0 159 42 159 151v88C402 31 343 1 264 1 134 1 57 87 57 251c0 161 73 248 208 248 80 0 140-30 172-91l9 79h74zm-86-234c0 127-65 178-150 178-96 0-141-56-141-179 0-125 47-181 141-181 86 0 150 52 150 182zM219 637c0 37 23 56 60 56s59-19 59-56-22-57-59-57-60 20-60 57z"/><glyph glyph-name="hbar" unicode="ħ" horiz-adv-x="645" d="M30 557v58h78v85h86v-85h157v-58H194V392c36 77 109 108 185 108 122 0 180-67 180-196V0h-86v282c0 103-44 143-120 143-96 0-157-65-159-182V0h-86v557H30z"/><glyph glyph-name="hcircumflex" unicode="ĥ" horiz-adv-x="630" d="M143 823l-70-69h-93v3l122 114h83l123-114v-3h-98zm36-123V393c36 76 109 106 185 106 122 0 180-67 180-195V0h-86v282c0 103-44 144-120 144-96 0-157-66-159-183V0H93v700h86z"/><glyph glyph-name="iacute" unicode="í" horiz-adv-x="276" d="M285 685L171 574H98v4l76 113h111v-6zM95 487h86V0H95v487z"/><glyph glyph-name="ibreve" unicode="ĭ" horiz-adv-x="276" d="M95 487h86V0H95v487zm119 204h66c0-94-54-123-142-123C49 568-5 597-5 691h66c0-52 26-68 76-68 51 0 77 16 77 68z"/><glyph glyph-name="icircumflex" unicode="î" horiz-adv-x="276" d="M139 643l-70-69h-93v3L98 691h83l123-114v-3h-98zM95 487h86V0H95v487z"/><glyph glyph-name="idieresis" unicode="ï" horiz-adv-x="276" d="M-9 637c0 37 23 56 60 56s59-19 59-56-22-57-59-57-60 20-60 57zm173 0c0 37 23 56 60 56s59-19 59-56-22-57-59-57-60 20-60 57zM95 487h86V0H95v487z"/><glyph glyph-name="idotaccent" unicode="" horiz-adv-x="276" d="M95 487h86V0H95v487zM79 638c0 37 22 56 59 56s59-19 59-56-22-57-59-57-59 20-59 57z"/><glyph glyph-name="igrave" unicode="ì" horiz-adv-x="276" d="M95 487h86V0H95v487zm14 87L-6 685v6h111l77-113v-4h-73z"/><glyph glyph-name="ij" unicode="ĳ" horiz-adv-x="551" d="M95 487h86V0H95v487zM79 638c0 37 22 56 59 56s59-19 59-56-22-57-59-57-59 20-59 57zM371-33v520h86V-44c0-119-58-172-153-172-26 0-47 3-77 13l14 72c18-7 33-11 58-11 45 0 72 23 72 109zm-16 671c0 37 22 56 59 56s59-19 59-56-22-57-59-57-59 20-59 57z"/><glyph glyph-name="imacron" unicode="ī" horiz-adv-x="276" d="M95 487h86V0H95v487zm171 173v-59H12v59h254z"/><glyph glyph-name="iogonek" unicode="į" horiz-adv-x="276" d="M100-212c-58 0-115 23-115 101C-15-35 38 13 95 30v457h86V0h-35C84-5 50-55 50-101c0-37 21-50 58-50 23 0 45 6 65 18l14-56c-25-15-53-23-87-23zM79 638c0 37 22 56 59 56s59-19 59-56-22-57-59-57-59 20-59 57z"/><glyph glyph-name="itilde" unicode="ĩ" horiz-adv-x="276" d="M95 487h86V0H95v487zm134 197h65c6-77-45-101-88-101-56 0-95 41-131 41-24 0-29-18-29-37h-66c-4 77 43 101 87 101 59 0 97-41 133-41 24 0 29 17 29 37z"/><glyph glyph-name="jcircumflex" unicode="ĵ" horiz-adv-x="276" d="M95-33v520h86V-44c0-119-58-172-153-172-26 0-47 3-77 13l14 72c18-7 33-11 58-11 45 0 72 23 72 109zm43 676l-70-69h-93v3L97 691h83l123-114v-3h-98z"/><glyph glyph-name="kcommaaccent" unicode="ķ" horiz-adv-x="524" d="M244-292l-17 40c38 11 59 41 63 80h-5c-38 0-59 19-59 55 0 35 22 53 56 53 38 0 61-23 61-81 0-68-31-129-99-147zM93 0v700h86V225l232 262h104L314 269 517 0H415L259 211l-80-85V0H93z"/><glyph glyph-name="kgreenlandic" unicode="ĸ" horiz-adv-x="524" d="M93 0v487h86V226l232 261h104L314 269 517 0H415L260 211l-81-85V0H93z"/><glyph glyph-name="lacute" unicode="ĺ" horiz-adv-x="275" d="M278 900L164 789H91v4l76 113h111v-6zm-95-200V0H97v700h86z"/><glyph glyph-name="lcaron" unicode="ľ" horiz-adv-x="322" d="M325 481h-59l7 220h84zM183 700V0H97v700h86z"/><glyph glyph-name="lcommaaccent" unicode="ļ" horiz-adv-x="284" d="M103-292l-17 40c38 11 59 41 63 80h-5c-38 0-59 19-59 55 0 35 22 53 56 53 38 0 61-23 61-81 0-68-31-129-99-147zm80 992V0H97v700h86z"/><glyph glyph-name="ldot" unicode="ŀ" horiz-adv-x="361" d="M183 700V0H97v700h86zm70-394c0 37 23 56 60 56s59-19 59-56-22-57-59-57-60 20-60 57z"/><glyph glyph-name="ncommaaccent" unicode="ņ" horiz-adv-x="630" d="M286-292l-17 40c38 11 59 41 63 80h-5c-38 0-59 19-59 55 0 35 22 53 56 53 38 0 61-23 61-81 0-68-31-129-99-147zM93 487h75l9-93c37 76 108 105 187 105 122 0 180-67 180-195V0h-86v284c0 102-43 142-120 142-95 0-156-66-159-183V0H93v487z"/><glyph glyph-name="oacute" unicode="ó" horiz-adv-x="586" d="M440 685L326 574h-73v4l76 113h111v-6zm3-441c0 138-48 186-150 186-104 0-150-48-150-186 0-137 48-187 150-187s150 50 150 187zm-386 1c0 176 85 254 236 254 158 0 236-76 236-254 0-175-82-257-236-257C140-12 57 65 57 245z"/><glyph glyph-name="obreve" unicode="ŏ" horiz-adv-x="586" d="M443 244c0 138-48 186-150 186-104 0-150-48-150-186 0-137 48-187 150-187s150 50 150 187zm-386 1c0 176 85 254 236 254 158 0 236-76 236-254 0-175-82-257-236-257C140-12 57 65 57 245zm311 446h66c0-94-54-123-142-123-89 0-143 29-143 123h66c0-52 26-68 76-68 51 0 77 16 77 68z"/><glyph glyph-name="ocircumflex" unicode="ô" horiz-adv-x="586" d="M293 643l-70-69h-93v3l122 114h83l123-114v-3h-98zm150-399c0 138-48 186-150 186-104 0-150-48-150-186 0-137 48-187 150-187s150 50 150 187zm-386 1c0 176 85 254 236 254 158 0 236-76 236-254 0-175-82-257-236-257C140-12 57 65 57 245z"/><glyph glyph-name="odieresis" unicode="ö" horiz-adv-x="586" d="M146 637c0 37 23 56 60 56s59-19 59-56-22-57-59-57-60 20-60 57zm173 0c0 37 23 56 60 56s59-19 59-56-22-57-59-57-60 20-60 57zm124-393c0 138-48 186-150 186-104 0-150-48-150-186 0-137 48-187 150-187s150 50 150 187zm-386 1c0 176 85 254 236 254 158 0 236-76 236-254 0-175-82-257-236-257C140-12 57 65 57 245z"/><glyph glyph-name="ograve" unicode="ò" horiz-adv-x="586" d="M443 244c0 138-48 186-150 186-104 0-150-48-150-186 0-137 48-187 150-187s150 50 150 187zm-386 1c0 176 85 254 236 254 158 0 236-76 236-254 0-175-82-257-236-257C140-12 57 65 57 245zm207 329L149 685v6h111l77-113v-4h-73z"/><glyph glyph-name="omacron" unicode="ō" horiz-adv-x="586" d="M420 660v-59H166v59h254zm23-416c0 138-48 186-150 186-104 0-150-48-150-186 0-137 48-187 150-187s150 50 150 187zm-386 1c0 176 85 254 236 254 158 0 236-76 236-254 0-175-82-257-236-257C140-12 57 65 57 245z"/><glyph glyph-name="otilde" unicode="õ" horiz-adv-x="586" d="M443 244c0 138-48 186-150 186-104 0-150-48-150-186 0-137 48-187 150-187s150 50 150 187zm-386 1c0 176 85 254 236 254 158 0 236-76 236-254 0-175-82-257-236-257C140-12 57 65 57 245zm326 439h65c6-77-45-101-88-101-56 0-95 41-131 41-24 0-29-18-29-37h-66c-4 77 43 101 87 101 59 0 97-41 133-41 24 0 29 17 29 37z"/><glyph glyph-name="rcommaaccent" unicode="ŗ" horiz-adv-x="381" d="M96-292l-17 40c38 11 59 41 63 80h-5c-38 0-59 19-59 55 0 35 22 53 56 53 38 0 61-23 61-81 0-68-31-129-99-147zM93 0v487h74l9-103c34 80 103 117 186 111v-82c-120 12-180-54-183-179V0H93z"/><glyph glyph-name="sacute" unicode="ś" horiz-adv-x="511" d="M389 685L275 574h-73v4l76 113h111v-6zM249 54c81 0 114 28 114 75 0 43-28 61-97 75l-44 9C104 239 63 290 63 358c0 80 56 141 186 141 86 0 136-27 177-78l-55-53c-34 43-66 63-128 63-68 0-100-23-100-67 0-34 19-62 89-77l55-12c122-26 157-73 157-140 0-75-45-147-196-147-95 0-164 26-208 99l61 44c35-57 79-77 148-77z"/><glyph glyph-name="scaron" unicode="š" horiz-adv-x="511" d="M243 624l71 67h93v-2L284 574h-83L79 689v2h96zm6-570c81 0 114 28 114 75 0 43-28 61-97 75l-44 9C104 239 63 290 63 358c0 80 56 141 186 141 86 0 136-27 177-78l-55-53c-34 43-66 63-128 63-68 0-100-23-100-67 0-34 19-62 89-77l55-12c122-26 157-73 157-140 0-75-45-147-196-147-95 0-164 26-208 99l61 44c35-57 79-77 148-77z"/><glyph glyph-name="scedilla" unicode="ş" horiz-adv-x="511" d="M249 54c81 0 114 28 114 75 0 43-28 61-97 75l-44 9C104 239 63 290 63 358c0 80 56 141 186 141 86 0 136-27 177-78l-55-53c-34 43-66 63-128 63-68 0-100-23-100-67 0-34 19-62 89-77l55-12c122-26 157-73 157-140 0-70-40-137-167-146l-14-50h3c46 0 87-29 87-84 0-62-53-92-115-92-50 0-93 18-118 59l42 40c19-30 37-46 73-46 31 0 54 12 54 39 0 26-21 42-54 42-8 0-15-1-23-2l-16 15 20 80C137-5 79 22 40 87l61 44c35-57 79-77 148-77z"/><glyph glyph-name="scircumflex" unicode="ŝ" horiz-adv-x="511" d="M243 643l-70-69H80v3l122 114h83l123-114v-3h-98zm6-589c81 0 114 28 114 75 0 43-28 61-97 75l-44 9C104 239 63 290 63 358c0 80 56 141 186 141 86 0 136-27 177-78l-55-53c-34 43-66 63-128 63-68 0-100-23-100-67 0-34 19-62 89-77l55-12c122-26 157-73 157-140 0-75-45-147-196-147-95 0-164 26-208 99l61 44c35-57 79-77 148-77z"/><glyph glyph-name="scommaaccent" unicode="ș" horiz-adv-x="511" d="M209-292l-17 40c38 11 59 41 63 80h-5c-38 0-59 19-59 55 0 35 22 53 56 53 38 0 61-23 61-81 0-68-31-129-99-147zm40 346c81 0 114 28 114 75 0 43-28 61-97 75l-44 9C104 239 63 290 63 358c0 80 56 141 186 141 86 0 136-27 177-78l-55-53c-34 43-66 63-128 63-68 0-100-23-100-67 0-34 19-62 89-77l55-12c122-26 157-73 157-140 0-75-45-147-196-147-95 0-164 26-208 99l61 44c35-57 79-77 148-77z"/><glyph glyph-name="tbar" unicode="ŧ" horiz-adv-x="352" d="M328 487v-67H187v-92h141v-58H187V165c0-86 34-103 82-103 25 0 40 4 59 10l14-70c-35-12-55-14-83-14-96 0-156 51-156 174v108H17v58h86v92H17v67h86v143h84V487h141z"/><glyph glyph-name="tcaron" unicode="ť" horiz-adv-x="360" d="M317 555h-59l7 195h84zM17 487h86v143h84V487h141v-67H187V165c0-86 34-103 82-103 25 0 40 4 59 10l14-70c-35-12-55-14-83-14-96 0-156 51-156 174v258H17v67z"/><glyph glyph-name="tcommaaccent" unicode="ţ" horiz-adv-x="352" d="M213-292l-17 40c38 11 59 41 63 80h-5c-38 0-59 19-59 55 0 35 22 53 56 53 38 0 61-23 61-81 0-68-31-129-99-147zM17 487h86v143h84V487h141v-67H187V165c0-86 34-103 82-103 25 0 40 4 59 10l14-70c-35-12-55-14-83-14-96 0-156 51-156 174v258H17v67z"/><glyph glyph-name="uogonek" unicode="ų" horiz-adv-x="626" d="M487-212c-58 0-115 23-115 101 0 65 39 109 85 131l-6 66c-37-71-106-98-177-98C146-12 86 62 86 191v296h86V203c0-97 41-145 122-145 94 0 150 63 153 180v249h86V0c-62-5-96-55-96-101 0-37 21-50 58-50 23 0 45 6 65 18l14-56c-25-15-53-23-87-23z"/><glyph glyph-name="wcircumflex" unicode="ŵ" horiz-adv-x="732" d="M368 643l-70-69h-93v3l122 114h83l123-114v-3h-98zm-44-159h89L528 97l115 390h82L570 0h-91L366 387 255 0h-91L7 487h86L210 98z"/><glyph glyph-name="yacute" unicode="ý" horiz-adv-x="502" d="M186-65l20 56L5 487h91L251 81l155 406h89L260-93c-39-95-99-123-175-123-26 0-47 3-78 13l14 72c22-7 38-11 65-11 31 0 74 7 100 77zm211 750L283 574h-73v4l76 113h111v-6z"/><glyph glyph-name="ycircumflex" unicode="ŷ" horiz-adv-x="502" d="M186-65l20 56L5 487h91L251 81l155 406h89L260-93c-39-95-99-123-175-123-26 0-47 3-78 13l14 72c22-7 38-11 65-11 31 0 74 7 100 77zm65 708l-70-69H88v3l122 114h83l123-114v-3h-98z"/><glyph glyph-name="ydieresis" unicode="ÿ" horiz-adv-x="502" d="M186-65l20 56L5 487h91L251 81l155 406h89L260-93c-39-95-99-123-175-123-26 0-47 3-78 13l14 72c22-7 38-11 65-11 31 0 74 7 100 77zm-83 702c0 37 23 56 60 56s59-19 59-56-22-57-59-57-60 20-60 57zm173 0c0 37 23 56 60 56s59-19 59-56-22-57-59-57-60 20-60 57z"/><glyph glyph-name="zacute" unicode="ź" horiz-adv-x="489" d="M390 685L276 574h-73v4l76 113h111v-6zM40 0v64l297 354H45v69h394v-65L140 69h307V0H40z"/><glyph glyph-name="zcaron" unicode="ž" horiz-adv-x="489" d="M244 624l71 67h93v-2L285 574h-83L80 689v2h96zM40 0v64l297 354H45v69h394v-65L140 69h307V0H40z"/><glyph glyph-name="zdotaccent" unicode="ż" horiz-adv-x="489" d="M40 0v64l297 354H45v69h394v-65L140 69h307V0H40zm145 637c0 37 23 56 60 56s59-19 59-56-22-57-59-57-60 20-60 57z"/><glyph glyph-name="Aacute" unicode="Á" horiz-adv-x="622" d="M518 0l-48 143H149L101 0H10l245 700h112L612 0h-94zM308 619L174 218h270zm154 280L348 788h-73v4l76 113h111v-6z"/><glyph glyph-name="Abreve" unicode="Ă" horiz-adv-x="622" d="M518 0l-48 143H149L101 0H10l245 700h112L612 0h-94zM308 619L174 218h270zm83 286h66c0-94-54-123-142-123-89 0-143 29-143 123h66c0-52 26-68 76-68 51 0 77 16 77 68z"/><glyph glyph-name="Acircumflex" unicode="Â" horiz-adv-x="622" d="M518 0l-48 143H149L101 0H10l245 700h112L612 0h-94zM308 619L174 218h270zm8 238l-70-69h-93v3l122 114h83l123-114v-3h-98z"/><glyph glyph-name="Adieresis" unicode="Ä" horiz-adv-x="622" d="M518 0l-48 143H149L101 0H10l245 700h112L612 0h-94zM308 619L174 218h270zM168 851c0 37 23 56 60 56s59-19 59-56-22-57-59-57-60 20-60 57zm173 0c0 37 23 56 60 56s59-19 59-56-22-57-59-57-60 20-60 57z"/><glyph glyph-name="Agrave" unicode="À" horiz-adv-x="622" d="M518 0l-48 143H149L101 0H10l245 700h112L612 0h-94zM308 619L174 218h270zm-22 170L171 900v6h111l77-113v-4h-73z"/><glyph glyph-name="Amacron" unicode="Ā" horiz-adv-x="622" d="M518 0l-48 143H149L101 0H10l245 700h112L612 0h-94zM308 619L174 218h270zm134 255v-59H188v59h254z"/><glyph glyph-name="Aogonek" unicode="Ą" horiz-adv-x="622" d="M509 24l-40 119H149L101 0H10l245 700h112L612 0h-34c-61-5-96-55-96-101 0-37 21-50 58-50 24 0 46 6 66 18l13-56c-25-15-53-23-86-23-59 0-116 23-116 101 0 68 43 113 92 135zM309 619L174 218h270z"/><glyph glyph-name="Aring" unicode="Å" horiz-adv-x="622" d="M518 0l-48 143H149L101 0H10l245 700h112L612 0h-94zM308 619L174 218h270zm-89 236c0 58 41 94 97 94 55 0 96-36 96-94s-41-94-97-94c-55 0-96 36-96 94zm48 0c0-30 20-53 48-53s49 23 49 53c0 31-21 52-48 52-29 0-49-21-49-52z"/><glyph glyph-name="Atilde" unicode="Ã" horiz-adv-x="622" d="M518 0l-48 143H149L101 0H10l245 700h112L612 0h-94zM308 619L174 218h270zm98 279h65c6-77-45-101-88-101-56 0-95 41-131 41-24 0-29-18-29-37h-66c-4 77 43 101 87 101 59 0 97-41 133-41 24 0 29 17 29 37z"/><glyph glyph-name="Ccedilla" unicode="Ç" horiz-adv-x="699" d="M659 132C606 36 527-5 420-11l-14-50h3c46 0 87-29 87-84 0-62-53-92-115-92-50 0-93 18-118 59l42 40c19-30 37-46 73-46 31 0 54 12 54 39 0 26-21 42-54 42-8 0-15-1-23-2l-16 15 20 79C173 0 77 104 77 351c0 261 107 361 315 361 125 0 207-36 255-132l-70-47c-38 81-96 107-185 107-144 0-226-61-226-288 0-226 82-292 226-292 91 0 155 30 201 117z"/><glyph glyph-name="Dcaron" unicode="Ď" horiz-adv-x="753" d="M386 838l71 67h93v-2L427 788h-83L222 903v2h96zM199 76h171c133 0 218 66 218 275 0 204-77 273-211 273H199V76zM373 0H110v700h264c204 0 303-104 303-346C677 113 574 0 373 0z"/><glyph glyph-name="Dcroat" unicode="Đ" horiz-adv-x="773" d="M393 0H130v323H48v71h82v306h264c204 0 303-104 303-346C697 113 594 0 393 0zM219 76h171c133 0 218 66 218 275 0 204-77 273-211 273H219V394h160v-71H219V76z"/><glyph glyph-name="Eacute" unicode="É" horiz-adv-x="666" d="M521 899L407 788h-73v4l76 113h111v-6zM110 0v700h506v-76H197V391h367v-78H197V76h429V0H110z"/><glyph glyph-name="Ebreve" unicode="Ĕ" horiz-adv-x="666" d="M110 0v700h506v-76H197V391h367v-78H197V76h429V0H110zm340 905h66c0-94-54-123-142-123-89 0-143 29-143 123h66c0-52 26-68 76-68 51 0 77 16 77 68z"/><glyph glyph-name="Ecaron" unicode="Ě" horiz-adv-x="666" d="M374 838l71 67h93v-2L415 788h-83L210 903v2h96zM110 0v700h506v-76H197V391h367v-78H197V76h429V0H110z"/><glyph glyph-name="Ecircumflex" unicode="Ê" horiz-adv-x="666" d="M375 857l-70-69h-93v3l122 114h83l123-114v-3h-98zM110 0v700h506v-76H197V391h367v-78H197V76h429V0H110z"/><glyph glyph-name="Edieresis" unicode="Ë" horiz-adv-x="666" d="M227 851c0 37 23 56 60 56s59-19 59-56-22-57-59-57-60 20-60 57zm173 0c0 37 23 56 60 56s59-19 59-56-22-57-59-57-60 20-60 57zM110 0v700h506v-76H197V391h367v-78H197V76h429V0H110z"/><glyph glyph-name="Edotaccent" unicode="Ė" horiz-adv-x="666" d="M110 0v700h506v-76H197V391h367v-78H197V76h429V0H110zm206 851c0 37 23 56 60 56s59-19 59-56-22-57-59-57-60 20-60 57z"/><glyph glyph-name="Egrave" unicode="È" horiz-adv-x="666" d="M110 0v700h506v-76H197V391h367v-78H197V76h429V0H110zm235 789L230 900v6h111l77-113v-4h-73z"/><glyph glyph-name="Emacron" unicode="Ē" horiz-adv-x="666" d="M110 0v700h506v-76H197V391h367v-78H197V76h429V0H110zm391 874v-59H247v59h254z"/><glyph glyph-name="Eng" unicode="Ŋ" horiz-adv-x="783" d="M585-33v27L193 569l3-569h-86v700h90l389-569-2 569h86V-44c0-119-59-172-153-172-26 0-47 3-77 13l14 72c18-7 33-11 57-11 45 0 71 23 71 109z"/><glyph glyph-name="Eogonek" unicode="Ę" horiz-adv-x="666" d="M110 0v700h506v-75H198V391h366v-78H198V75h428V0c-74-5-109-55-109-101 0-37 22-50 58-50 24 0 46 6 66 18l13-56c-25-15-52-23-86-23-59 0-115 23-115 101 0 49 21 87 53 111H110z"/><glyph glyph-name="Eth" unicode="Ð" horiz-adv-x="773" d="M393 0H130v323H48v71h82v306h264c204 0 303-104 303-346C697 113 594 0 393 0zM219 76h171c133 0 218 66 218 275 0 204-77 273-211 273H219V394h160v-71H219V76z"/><glyph glyph-name="Gbreve" unicode="Ğ" horiz-adv-x="743" d="M377-12C183-12 77 101 77 351c0 261 106 361 315 361 125 0 206-39 254-128l-71-48c-39 74-95 104-183 104-145 0-226-58-226-289 0-223 80-291 222-291 90 0 194 44 197 198v25H394v70h273V0h-74l-6 99C548 29 469-12 377-12zm87 917h66c0-94-54-123-142-123-89 0-143 29-143 123h66c0-52 26-68 76-68 51 0 77 16 77 68z"/><glyph glyph-name="Gcircumflex" unicode="Ĝ" horiz-adv-x="743" d="M390 857l-70-69h-93v3l122 114h83l123-114v-3h-98zM377-12C183-12 77 101 77 351c0 261 106 361 315 361 125 0 206-39 254-128l-71-48c-39 74-95 104-183 104-145 0-226-58-226-289 0-223 80-291 222-291 90 0 194 44 197 198v25H394v70h273V0h-74l-6 99C548 29 469-12 377-12z"/><glyph glyph-name="Gcommaaccent" unicode="Ģ" horiz-adv-x="743" d="M344-292l-17 40c38 11 59 41 63 80h-5c-38 0-59 19-59 55 0 35 22 53 56 53 38 0 61-23 61-81 0-68-31-129-99-147zm33 280C183-12 77 101 77 351c0 261 106 361 315 361 125 0 206-39 254-128l-71-48c-39 74-95 104-183 104-145 0-226-58-226-289 0-223 80-291 222-291 90 0 194 44 197 198v25H394v70h273V0h-74l-6 99C548 29 469-12 377-12z"/><glyph glyph-name="Gdotaccent" unicode="Ġ" horiz-adv-x="743" d="M377-12C183-12 77 101 77 351c0 261 106 361 315 361 125 0 206-39 254-128l-71-48c-39 74-95 104-183 104-145 0-226-58-226-289 0-223 80-291 222-291 90 0 194 44 197 198v25H394v70h273V0h-74l-6 99C548 29 469-12 377-12zm-47 863c0 37 23 56 60 56s59-19 59-56-22-57-59-57-60 20-60 57z"/><glyph glyph-name="Hbar" unicode="Ħ" horiz-adv-x="815" d="M606 0v313H209V0h-89v490H48v61h72v149h89V551h397v149h89V551h72v-61h-72V0h-89zM209 391h397v99H209v-99z"/><glyph glyph-name="Hcircumflex" unicode="Ĥ" horiz-adv-x="795" d="M399 858l-70-69h-93v3l122 114h83l123-114v-3h-98zM596 0v313H199V0h-89v700h89V391h397v309h89V0h-89z"/><glyph glyph-name="Iacute" unicode="Í" horiz-adv-x="309" d="M110 0v700h89V0h-89zm191 899L187 788h-73v4l76 113h111v-6z"/><glyph glyph-name="Ibreve" unicode="Ĭ" horiz-adv-x="309" d="M110 0v700h89V0h-89zm120 905h66c0-94-54-123-142-123-89 0-143 29-143 123h66c0-52 26-68 76-68 51 0 77 16 77 68z"/><glyph glyph-name="Icircumflex" unicode="Î" horiz-adv-x="309" d="M110 0v700h89V0h-89zm45 857l-70-69H-8v3l122 114h83l123-114v-3h-98z"/><glyph glyph-name="Idieresis" unicode="Ï" horiz-adv-x="309" d="M110 0v700h89V0h-89zM7 851c0 37 23 56 60 56s59-19 59-56-22-57-59-57-60 20-60 57zm173 0c0 37 23 56 60 56s59-19 59-56-22-57-59-57-60 20-60 57z"/><glyph glyph-name="Idotaccent" unicode="İ" horiz-adv-x="309" d="M110 0v700h89V0h-89zM96 851c0 37 23 56 60 56s59-19 59-56-22-57-59-57-60 20-60 57z"/><glyph glyph-name="Igrave" unicode="Ì" horiz-adv-x="309" d="M110 0v700h89V0h-89zm15 789L10 900v6h111l77-113v-4h-73z"/><glyph glyph-name="IJ" unicode="Ĳ" horiz-adv-x="822" d="M110 0v700h89V0h-89zm377-12c-57 0-112 15-158 49l41 67c34-28 79-42 124-42 88 0 147 53 147 189v449h89V258C730 52 628-12 487-12z"/><glyph glyph-name="Imacron" unicode="Ī" horiz-adv-x="309" d="M110 0v700h89V0h-89zm172 874v-59H28v59h254z"/><glyph glyph-name="Iogonek" unicode="Į" horiz-adv-x="309" d="M113-212C54-212-2-189-2-111-2-34 52 14 110 30v670h89V0h-41C97-5 62-55 62-101c0-37 22-50 58-50 24 0 46 6 66 18l13-56c-25-15-52-23-86-23z"/><glyph glyph-name="Itilde" unicode="Ĩ" horiz-adv-x="309" d="M110 0v700h89V0h-89zm136 898h65c6-77-45-101-88-101-56 0-95 41-131 41-24 0-29-18-29-37H-3c-4 77 43 101 87 101 59 0 97-41 133-41 24 0 29 17 29 37z"/><glyph glyph-name="Jcircumflex" unicode="Ĵ" horiz-adv-x="509" d="M375 857l-70-69h-93v3l122 114h83l123-114v-3h-98zM174-12C117-12 62 3 16 37l41 67c34-28 79-42 124-42 88 0 147 53 147 189v449h89V258C417 52 315-12 174-12z"/><glyph glyph-name="Kcommaaccent" unicode="Ķ" horiz-adv-x="641" d="M307-292l-17 40c38 11 59 41 63 80h-5c-38 0-59 19-59 55 0 35 22 53 56 53 38 0 61-23 61-81 0-68-31-129-99-147zM110 0v700h89V311l319 389h106L362 387 639 0H533L303 322 199 199V0h-89z"/><glyph glyph-name="Lacute" unicode="Ĺ" horiz-adv-x="633" d="M300 899L186 788h-73v4l76 113h111v-6zM199 76h407V0H110v700h89V76z"/><glyph glyph-name="Lcaron" unicode="Ľ" horiz-adv-x="633" d="M454 481h-59l7 220h84zM199 76h407V0H110v700h89V76z"/><glyph glyph-name="Lcommaaccent" unicode="Ļ" horiz-adv-x="633" d="M319-292l-17 40c38 11 59 41 63 80h-5c-38 0-59 19-59 55 0 35 22 53 56 53 38 0 61-23 61-81 0-68-31-129-99-147zM199 76h407V0H110v700h89V76z"/><glyph glyph-name="Ldot" unicode="Ŀ" horiz-adv-x="633" d="M199 76h407V0H110v700h89V76zm196 283c0 37 23 56 60 56s59-19 59-56-22-57-59-57-60 20-60 57z"/><glyph glyph-name="Nacute" unicode="Ń" horiz-adv-x="783" d="M537 899L423 788h-73v4l76 113h111v-6zM581 0L193 569l3-569h-86v700h90l389-569-2 569h86V0h-92z"/><glyph glyph-name="Ncaron" unicode="Ň" horiz-adv-x="783" d="M391 838l71 67h93v-2L432 788h-83L227 903v2h96zM581 0L193 569l3-569h-86v700h90l389-569-2 569h86V0h-92z"/><glyph glyph-name="Ncommaaccent" unicode="Ņ" horiz-adv-x="783" d="M353-292l-17 40c38 11 59 41 63 80h-5c-38 0-59 19-59 55 0 35 22 53 56 53 38 0 61-23 61-81 0-68-31-129-99-147zM581 0L193 569l3-569h-86v700h90l389-569-2 569h86V0h-92z"/><glyph glyph-name="Ntilde" unicode="Ñ" horiz-adv-x="783" d="M581 0L193 569l3-569h-86v700h90l389-569-2 569h86V0h-92zM481 898h65c6-77-45-101-88-101-56 0-95 41-131 41-24 0-29-18-29-37h-66c-4 77 43 101 87 101 59 0 97-41 133-41 24 0 29 17 29 37z"/><glyph glyph-name="Oacute" unicode="Ó" horiz-adv-x="782" d="M538 899L424 788h-73v4l76 113h111v-6zM77 351c0 256 104 361 314 361 219 0 315-105 315-361S601-12 391-12C177-12 77 95 77 351zm89-1c0-221 78-290 225-290s226 66 226 292c0 220-79 288-226 288s-225-64-225-290z"/><glyph glyph-name="Obreve" unicode="Ŏ" horiz-adv-x="782" d="M77 351c0 256 104 361 314 361 219 0 315-105 315-361S601-12 391-12C177-12 77 95 77 351zm89-1c0-221 78-290 225-290s226 66 226 292c0 220-79 288-226 288s-225-64-225-290zm301 555h66c0-94-54-123-142-123-89 0-143 29-143 123h66c0-52 26-68 76-68 51 0 77 16 77 68z"/><glyph glyph-name="Ocircumflex" unicode="Ô" horiz-adv-x="782" d="M392 857l-70-69h-93v3l122 114h83l123-114v-3h-98zM77 351c0 256 104 361 314 361 219 0 315-105 315-361S601-12 391-12C177-12 77 95 77 351zm89-1c0-221 78-290 225-290s226 66 226 292c0 220-79 288-226 288s-225-64-225-290z"/><glyph glyph-name="Odieresis" unicode="Ö" horiz-adv-x="782" d="M244 851c0 37 23 56 60 56s59-19 59-56-22-57-59-57-60 20-60 57zm173 0c0 37 23 56 60 56s59-19 59-56-22-57-59-57-60 20-60 57zM77 351c0 256 104 361 314 361 219 0 315-105 315-361S601-12 391-12C177-12 77 95 77 351zm89-1c0-221 78-290 225-290s226 66 226 292c0 220-79 288-226 288s-225-64-225-290z"/><glyph glyph-name="Ograve" unicode="Ò" horiz-adv-x="782" d="M77 351c0 256 104 361 314 361 219 0 315-105 315-361S601-12 391-12C177-12 77 95 77 351zm89-1c0-221 78-290 225-290s226 66 226 292c0 220-79 288-226 288s-225-64-225-290zm196 440L247 901v6h111l77-113v-4h-73z"/><glyph glyph-name="Omacron" unicode="Ō" horiz-adv-x="782" d="M519 874v-59H265v59h254zM77 351c0 256 104 361 314 361 219 0 315-105 315-361S601-12 391-12C177-12 77 95 77 351zm89-1c0-221 78-290 225-290s226 66 226 292c0 220-79 288-226 288s-225-64-225-290z"/><glyph glyph-name="Otilde" unicode="Õ" horiz-adv-x="782" d="M77 351c0 256 104 361 314 361 219 0 315-105 315-361S601-12 391-12C177-12 77 95 77 351zm89-1c0-221 78-290 225-290s226 66 226 292c0 220-79 288-226 288s-225-64-225-290zm316 548h65c6-77-45-101-88-101-56 0-95 41-131 41-24 0-29-18-29-37h-66c-4 77 43 101 87 101 59 0 97-41 133-41 24 0 29 17 29 37z"/><glyph glyph-name="Racute" unicode="Ŕ" horiz-adv-x="676" d="M511 899L397 788h-73v4l76 113h111v-6zM110 0v700h278c158 0 235-76 235-210 0-110-50-180-138-210L635 0h-98L395 265H199V0h-89zm278 624H199V342h188c92 0 147 47 147 145 0 87-47 137-146 137z"/><glyph glyph-name="Rcaron" unicode="Ř" horiz-adv-x="676" d="M365 838l71 67h93v-2L406 788h-83L201 903v2h96zM110 0v700h278c158 0 235-76 235-210 0-110-50-180-138-210L635 0h-98L395 265H199V0h-89zm278 624H199V342h188c92 0 147 47 147 145 0 87-47 137-146 137z"/><glyph glyph-name="Rcommaaccent" unicode="Ŗ" horiz-adv-x="676" d="M307-292l-17 40c38 11 59 41 63 80h-5c-38 0-59 19-59 55 0 35 22 53 56 53 38 0 61-23 61-81 0-68-31-129-99-147zM110 0v700h278c158 0 235-76 235-210 0-110-50-180-138-210L635 0h-98L395 265H199V0h-89zm278 624H199V342h188c92 0 147 47 147 145 0 87-47 137-146 137z"/><glyph glyph-name="Sacute" unicode="Ś" horiz-adv-x="629" d="M456 899L342 788h-73v4l76 113h111v-6zm96-311l-70-44c-37 68-87 99-175 99-117 0-158-48-158-111 0-58 32-104 134-128l65-15c152-35 221-93 221-201 0-132-95-200-257-200C196-12 99 22 38 124l70 44C160 91 215 57 310 57c122 0 174 45 174 124 0 70-34 97-149 126l-65 16C135 356 66 423 66 528c0 109 80 184 241 184 133 0 198-43 245-124z"/><glyph glyph-name="Scaron" unicode="Š" horiz-adv-x="629" d="M310 838l71 67h93v-2L351 788h-83L146 903v2h96zm242-250l-70-44c-37 68-87 99-175 99-117 0-158-48-158-111 0-58 32-104 134-128l65-15c152-35 221-93 221-201 0-132-95-200-257-200C196-12 99 22 38 124l70 44C160 91 215 57 310 57c122 0 174 45 174 124 0 70-34 97-149 126l-65 16C135 356 66 423 66 528c0 109 80 184 241 184 133 0 198-43 245-124z"/><glyph glyph-name="Scedilla" unicode="Ş" horiz-adv-x="629" d="M552 588l-70-44c-37 68-87 99-175 99-117 0-158-48-158-111 0-58 32-104 134-128l65-15c152-35 221-93 221-201C569 64 485-3 341-11l-14-50h3c46 0 87-29 87-84 0-62-53-92-115-92-50 0-93 18-118 59l42 40c19-30 37-46 73-46 31 0 54 12 54 39 0 26-21 42-54 42-8 0-15-1-23-2l-16 15 20 79C178-5 93 31 38 124l70 44C160 91 215 57 310 57c122 0 174 45 174 124 0 70-34 97-149 126l-65 16C135 356 66 423 66 528c0 109 80 184 241 184 133 0 198-43 245-124z"/><glyph glyph-name="Scircumflex" unicode="Ŝ" horiz-adv-x="629" d="M310 857l-70-69h-93v3l122 114h83l123-114v-3h-98zm242-269l-70-44c-37 68-87 99-175 99-117 0-158-48-158-111 0-58 32-104 134-128l65-15c152-35 221-93 221-201 0-132-95-200-257-200C196-12 99 22 38 124l70 44C160 91 215 57 310 57c122 0 174 45 174 124 0 70-34 97-149 126l-65 16C135 356 66 423 66 528c0 109 80 184 241 184 133 0 198-43 245-124z"/><glyph glyph-name="Scommaaccent" unicode="Ș" horiz-adv-x="629" d="M265-292l-17 40c38 11 59 41 63 80h-5c-38 0-59 19-59 55 0 35 22 53 56 53 38 0 61-23 61-81 0-68-31-129-99-147zm287 880l-70-44c-37 68-87 99-175 99-117 0-158-48-158-111 0-58 32-104 134-128l65-15c152-35 221-93 221-201 0-132-95-200-257-200C196-12 99 22 38 124l70 44C160 91 215 57 310 57c122 0 174 45 174 124 0 70-34 97-149 126l-65 16C135 356 66 423 66 528c0 109 80 184 241 184 133 0 198-43 245-124z"/><glyph glyph-name="Tbar" unicode="Ŧ" horiz-adv-x="571" d="M13 700h546v-76H331V381h180v-60H331V0h-90v321H61v60h180v243H13v76z"/><glyph glyph-name="Tcaron" unicode="Ť" horiz-adv-x="571" d="M285 838l71 67h93v-2L326 788h-83L121 903v2h96zM12 700h547v-76H330V0h-89v624H12v76z"/><glyph glyph-name="Tcommaaccent" unicode="Ţ" horiz-adv-x="571" d="M246-292l-17 40c38 11 59 41 63 80h-5c-38 0-59 19-59 55 0 35 22 53 56 53 38 0 61-23 61-81 0-68-31-129-99-147zM12 700h547v-76H330V0h-89v624H12v76z"/><glyph glyph-name="Uacute" unicode="Ú" horiz-adv-x="752" d="M524 899L410 788h-73v4l76 113h111v-6zm47-628v429h89V275C660 86 553-12 376-12 197-12 92 86 92 275v425h89V271c0-150 77-211 195-211s195 61 195 211z"/><glyph glyph-name="Ubreve" unicode="Ŭ" horiz-adv-x="752" d="M571 271v429h89V275C660 86 553-12 376-12 197-12 92 86 92 275v425h89V271c0-150 77-211 195-211s195 61 195 211zM453 905h66c0-94-54-123-142-123-89 0-143 29-143 123h66c0-52 26-68 76-68 51 0 77 16 77 68z"/><glyph glyph-name="Ucircumflex" unicode="Û" horiz-adv-x="752" d="M378 857l-70-69h-93v3l122 114h83l123-114v-3h-98zm193-586v429h89V275C660 86 553-12 376-12 197-12 92 86 92 275v425h89V271c0-150 77-211 195-211s195 61 195 211z"/><glyph glyph-name="Udieresis" unicode="Ü" horiz-adv-x="752" d="M231 851c0 37 23 56 60 56s59-19 59-56-22-57-59-57-60 20-60 57zm173 0c0 37 23 56 60 56s59-19 59-56-22-57-59-57-60 20-60 57zm167-580v429h89V275C660 86 553-12 376-12 197-12 92 86 92 275v425h89V271c0-150 77-211 195-211s195 61 195 211z"/><glyph glyph-name="Ugrave" unicode="Ù" horiz-adv-x="752" d="M571 271v429h89V275C660 86 553-12 376-12 197-12 92 86 92 275v425h89V271c0-150 77-211 195-211s195 61 195 211zM349 790L234 901v6h111l77-113v-4h-73z"/><glyph glyph-name="Umacron" unicode="Ū" horiz-adv-x="752" d="M571 271v429h89V275C660 86 553-12 376-12 197-12 92 86 92 275v425h89V271c0-150 77-211 195-211s195 61 195 211zm-66 603v-59H251v59h254z"/><glyph glyph-name="Uogonek" unicode="Ų" horiz-adv-x="753" d="M337-99c0 36 13 66 33 88h-4C194-6 93 90 93 275v425h89V271c0-150 77-210 195-210s195 60 195 210v429h89V275c0-154-72-242-193-277-43-13-67-52-67-87 0-46 22-62 58-62 24 0 46 6 66 18l13-56c-25-15-52-23-86-23-59 0-115 26-115 113z"/><glyph glyph-name="Uring" unicode="Ů" horiz-adv-x="752" d="M281 855c0 58 41 94 97 94 55 0 96-36 96-94s-41-94-97-94c-55 0-96 36-96 94zm48 0c0-30 20-53 48-53s49 23 49 53c0 31-21 52-48 52-29 0-49-21-49-52zm242-584v429h89V275C660 86 553-12 376-12 197-12 92 86 92 275v425h89V271c0-150 77-211 195-211s195 61 195 211z"/><glyph glyph-name="Utilde" unicode="Ũ" horiz-adv-x="752" d="M571 271v429h89V275C660 86 553-12 376-12 197-12 92 86 92 275v425h89V271c0-150 77-211 195-211s195 61 195 211zM468 898h65c6-77-45-101-88-101-56 0-95 41-131 41-24 0-29-18-29-37h-66c-4 77 43 101 87 101 59 0 97-41 133-41 24 0 29 17 29 37z"/><glyph glyph-name="Wcircumflex" unicode="Ŵ" horiz-adv-x="911" d="M457 857l-70-69h-93v3l122 114h83l123-114v-3h-98zm-44-159h87l158-569 160 571h86L699 0h-85L455 572 297 0h-86L7 700h91l157-575z"/><glyph glyph-name="Yacute" unicode="Ý" horiz-adv-x="610" d="M261 280L10 700h96l201-346 200 346h93L350 280V0h-89v280zm192 619L339 788h-73v4l76 113h111v-6z"/><glyph glyph-name="Ycircumflex" unicode="Ŷ" horiz-adv-x="610" d="M261 280L10 700h96l201-346 200 346h93L350 280V0h-89v280zm46 577l-70-69h-93v3l122 114h83l123-114v-3h-98z"/><glyph glyph-name="Ydieresis" unicode="Ÿ" horiz-adv-x="610" d="M261 280L10 700h96l201-346 200 346h93L350 280V0h-89v280zM159 851c0 37 23 56 60 56s59-19 59-56-22-57-59-57-60 20-60 57zm173 0c0 37 23 56 60 56s59-19 59-56-22-57-59-57-60 20-60 57z"/><glyph glyph-name="Zacute" unicode="Ź" horiz-adv-x="570" d="M433 899L319 788h-73v4l76 113h111v-6zM20 0v67l423 558-398-1v76h504v-67L123 75l429 1V0H20z"/><glyph glyph-name="Zcaron" unicode="Ž" horiz-adv-x="570" d="M286 838l71 67h93v-2L327 788h-83L122 903v2h96zM20 0v67l423 558-398-1v76h504v-67L123 75l429 1V0H20z"/><glyph glyph-name="Zdotaccent" unicode="Ż" horiz-adv-x="570" d="M20 0v67l423 558-398-1v76h504v-67L123 75l429 1V0H20zm208 851c0 37 23 56 60 56s59-19 59-56-22-57-59-57-60 20-60 57z"/><glyph glyph-name="Cacute" unicode="Ć" horiz-adv-x="699" d="M539 900L425 789h-73v4l76 113h111v-6zM392-12C184-12 77 90 77 351s107 361 315 361c125 0 207-36 255-132l-70-47c-38 81-96 107-185 107-144 0-226-61-226-288 0-226 82-292 226-292 91 0 155 30 201 117l66-45C602 28 514-12 392-12z"/><glyph glyph-name="Ccaron" unicode="Č" horiz-adv-x="699" d="M393 839l71 67h93v-2L434 789h-83L229 904v2h96zm-1-851C184-12 77 90 77 351s107 361 315 361c125 0 207-36 255-132l-70-47c-38 81-96 107-185 107-144 0-226-61-226-288 0-226 82-292 226-292 91 0 155 30 201 117l66-45C602 28 514-12 392-12z"/><glyph glyph-name="Ccircumflex" unicode="Ĉ" horiz-adv-x="699" d="M394 858l-70-69h-93v3l122 114h83l123-114v-3h-98zm-2-870C184-12 77 90 77 351s107 361 315 361c125 0 207-36 255-132l-70-47c-38 81-96 107-185 107-144 0-226-61-226-288 0-226 82-292 226-292 91 0 155 30 201 117l66-45C602 28 514-12 392-12z"/><glyph glyph-name="Cdotaccent" unicode="Ċ" horiz-adv-x="699" d="M392-12C184-12 77 90 77 351s107 361 315 361c125 0 207-36 255-132l-70-47c-38 81-96 107-185 107-144 0-226-61-226-288 0-226 82-292 226-292 91 0 155 30 201 117l66-45C602 28 514-12 392-12zm-58 864c0 37 23 56 60 56s59-19 59-56-22-57-59-57-60 20-60 57z"/><glyph glyph-name="Ohungarumlaut" unicode="Ő" horiz-adv-x="782" d="M444 899l-92-111h-70v4l62 113h100v-6zm157 0L481 788h-70v4l77 113h113v-6zM77 351c0 256 104 361 314 361 219 0 315-105 315-361S601-12 391-12C177-12 77 95 77 351zm89-1c0-221 78-290 225-290s226 66 226 292c0 220-79 288-226 288s-225-64-225-290z"/><glyph glyph-name="Uhungarumlaut" unicode="Ű" horiz-adv-x="752" d="M571 271v429h89V275C660 86 553-12 376-12 197-12 92 86 92 275v425h89V271c0-150 77-211 195-211s195 61 195 211zM429 899l-92-111h-70v4l62 113h100v-6zm157 0L466 788h-70v4l77 113h113v-6z"/><glyph glyph-name="ohungarumlaut" unicode="ő" horiz-adv-x="586" d="M344 685l-92-111h-70v4l62 113h100v-6zm157 0L381 574h-70v4l77 113h113v-6zm-58-441c0 138-48 186-150 186-104 0-150-48-150-186 0-137 48-187 150-187s150 50 150 187zm-386 1c0 176 85 254 236 254 158 0 236-76 236-254 0-175-82-257-236-257C140-12 57 65 57 245z"/><glyph glyph-name="uacute" unicode="ú" horiz-adv-x="626" d="M456 685L342 574h-73v4l76 113h111v-6zm3-685l-7 86c-38-70-107-98-178-98C146-12 86 63 86 191v296h86V203c0-97 41-145 122-145 94 0 150 63 153 180v249h86V0h-74z"/><glyph glyph-name="ubreve" unicode="ŭ" horiz-adv-x="626" d="M459 0l-7 86c-38-70-107-98-178-98C146-12 86 63 86 191v296h86V203c0-97 41-145 122-145 94 0 150 63 153 180v249h86V0h-74zm-74 691h66c0-94-54-123-142-123-89 0-143 29-143 123h66c0-52 26-68 76-68 51 0 77 16 77 68z"/><glyph glyph-name="ucircumflex" unicode="û" horiz-adv-x="626" d="M309 643l-70-69h-93v3l122 114h83l123-114v-3h-98zM459 0l-7 86c-38-70-107-98-178-98C146-12 86 63 86 191v296h86V203c0-97 41-145 122-145 94 0 150 63 153 180v249h86V0h-74z"/><glyph glyph-name="udieresis" unicode="ü" horiz-adv-x="626" d="M162 637c0 37 23 56 60 56s59-19 59-56-22-57-59-57-60 20-60 57zm173 0c0 37 23 56 60 56s59-19 59-56-22-57-59-57-60 20-60 57zM459 0l-7 86c-38-70-107-98-178-98C146-12 86 63 86 191v296h86V203c0-97 41-145 122-145 94 0 150 63 153 180v249h86V0h-74z"/><glyph glyph-name="ugrave" unicode="ù" horiz-adv-x="626" d="M459 0l-7 86c-38-70-107-98-178-98C146-12 86 63 86 191v296h86V203c0-97 41-145 122-145 94 0 150 63 153 180v249h86V0h-74zM280 574L165 685v6h111l77-113v-4h-73z"/><glyph glyph-name="uhungarumlaut" unicode="ű" horiz-adv-x="626" d="M459 0l-7 86c-38-70-107-98-178-98C146-12 86 63 86 191v296h86V203c0-97 41-145 122-145 94 0 150 63 153 180v249h86V0h-74zM353 685l-92-111h-70v4l62 113h100v-6zm157 0L390 574h-70v4l77 113h113v-6z"/><glyph glyph-name="umacron" unicode="ū" horiz-adv-x="626" d="M459 0l-7 86c-38-70-107-98-178-98C146-12 86 63 86 191v296h86V203c0-97 41-145 122-145 94 0 150 63 153 180v249h86V0h-74zm-23 660v-59H182v59h254z"/><glyph glyph-name="uring" unicode="ů" horiz-adv-x="626" d="M213 641c0 58 41 94 97 94 55 0 96-36 96-94s-41-94-97-94c-55 0-96 36-96 94zm48 0c0-30 20-53 48-53s49 23 49 53c0 31-21 52-48 52-29 0-49-21-49-52zM459 0l-7 86c-38-70-107-98-178-98C146-12 86 63 86 191v296h86V203c0-97 41-145 122-145 94 0 150 63 153 180v249h86V0h-74z"/><glyph glyph-name="utilde" unicode="ũ" horiz-adv-x="626" d="M459 0l-7 86c-38-70-107-98-178-98C146-12 86 63 86 191v296h86V203c0-97 41-145 122-145 94 0 150 63 153 180v249h86V0h-74zm-59 684h65c6-77-45-101-88-101-56 0-95 41-131 41-24 0-29-18-29-37h-66c-4 77 43 101 87 101 59 0 97-41 133-41 24 0 29 17 29 37z"/><glyph glyph-name="aacute" unicode="á" horiz-adv-x="572" d="M228-12C130-12 60 40 60 134c0 90 55 163 214 163h126c-2 101-45 133-131 133-71 0-113-27-141-65l-48 52c37 54 101 82 197 82 125 0 209-49 209-201V0h-74l-7 89C374 27 314-12 228-12zm19 69c90 0 152 63 153 172v2H275c-93 0-131-30-131-94 0-50 31-80 103-80zm174 628L307 574h-73v4l76 113h111v-6z"/><glyph glyph-name="abreve" unicode="ă" horiz-adv-x="572" d="M228-12C130-12 60 40 60 134c0 90 55 163 214 163h126c-2 101-45 133-131 133-71 0-113-27-141-65l-48 52c37 54 101 82 197 82 125 0 209-49 209-201V0h-74l-7 89C374 27 314-12 228-12zm19 69c90 0 152 63 153 172v2H275c-93 0-131-30-131-94 0-50 31-80 103-80zm103 634h66c0-94-54-123-142-123-89 0-143 29-143 123h66c0-52 26-68 76-68 51 0 77 16 77 68z"/><glyph glyph-name="acircumflex" unicode="â" horiz-adv-x="572" d="M228-12C130-12 60 40 60 134c0 90 55 163 214 163h126c-2 101-45 133-131 133-71 0-113-27-141-65l-48 52c37 54 101 82 197 82 125 0 209-49 209-201V0h-74l-7 89C374 27 314-12 228-12zm19 69c90 0 152 63 153 172v2H275c-93 0-131-30-131-94 0-50 31-80 103-80zm28 586l-70-69h-93v3l122 114h83l123-114v-3h-98z"/><glyph glyph-name="adieresis" unicode="ä" horiz-adv-x="572" d="M228-12C130-12 60 40 60 134c0 90 55 163 214 163h126c-2 101-45 133-131 133-71 0-113-27-141-65l-48 52c37 54 101 82 197 82 125 0 209-49 209-201V0h-74l-7 89C374 27 314-12 228-12zm19 69c90 0 152 63 153 172v2H275c-93 0-131-30-131-94 0-50 31-80 103-80zM127 637c0 37 23 56 60 56s59-19 59-56-22-57-59-57-60 20-60 57zm173 0c0 37 23 56 60 56s59-19 59-56-22-57-59-57-60 20-60 57z"/><glyph glyph-name="agrave" unicode="à" horiz-adv-x="572" d="M228-12C130-12 60 40 60 134c0 90 55 163 214 163h126c-2 101-45 133-131 133-71 0-113-27-141-65l-48 52c37 54 101 82 197 82 125 0 209-49 209-201V0h-74l-7 89C374 27 314-12 228-12zm19 69c90 0 152 63 153 172v2H275c-93 0-131-30-131-94 0-50 31-80 103-80zm-2 517L130 685v6h111l77-113v-4h-73z"/><glyph glyph-name="amacron" unicode="ā" horiz-adv-x="572" d="M228-12C130-12 60 40 60 134c0 90 55 163 214 163h126c-2 101-45 133-131 133-71 0-113-27-141-65l-48 52c37 54 101 82 197 82 125 0 209-49 209-201V0h-74l-7 89C374 27 314-12 228-12zm19 69c90 0 152 63 153 172v2H275c-93 0-131-30-131-94 0-50 31-80 103-80zm154 603v-59H147v59h254z"/><glyph glyph-name="aring" unicode="å" horiz-adv-x="572" d="M228-12C130-12 60 40 60 134c0 90 55 163 214 163h126c-2 101-45 133-131 133-71 0-113-27-141-65l-48 52c37 54 101 82 197 82 125 0 209-49 209-201V0h-74l-7 89C374 27 314-12 228-12zm19 69c90 0 152 63 153 172v2H275c-93 0-131-30-131-94 0-50 31-80 103-80zm-69 584c0 58 41 94 97 94 55 0 96-36 96-94s-41-94-97-94c-55 0-96 36-96 94zm48 0c0-30 20-53 48-53s49 23 49 53c0 31-21 52-48 52-29 0-49-21-49-52z"/><glyph glyph-name="atilde" unicode="ã" horiz-adv-x="572" d="M228-12C130-12 60 40 60 134c0 90 55 163 214 163h126c-2 101-45 133-131 133-71 0-113-27-141-65l-48 52c37 54 101 82 197 82 125 0 209-49 209-201V0h-74l-7 89C374 27 314-12 228-12zm19 69c90 0 152 63 153 172v2H275c-93 0-131-30-131-94 0-50 31-80 103-80zm118 627h65c6-77-45-101-88-101-56 0-95 41-131 41-24 0-29-18-29-37h-66c-4 77 43 101 87 101 59 0 97-41 133-41 24 0 29 17 29 37z"/><glyph glyph-name="eacute" unicode="é" horiz-adv-x="547" d="M430 685L316 574h-73v4l76 113h111v-6zM287-12C141-12 57 67 57 243c0 167 81 256 232 256 144 0 208-100 208-235 0-15-1-30-2-46H142c6-118 56-161 147-161 70 0 113 18 143 85l64-33C457 24 383-12 287-12zm-2 443c-84 0-133-41-142-147h269c-4 105-50 147-127 147z"/><glyph glyph-name="ebreve" unicode="ĕ" horiz-adv-x="547" d="M287-12C141-12 57 67 57 243c0 167 81 256 232 256 144 0 208-100 208-235 0-15-1-30-2-46H142c6-118 56-161 147-161 70 0 113 18 143 85l64-33C457 24 383-12 287-12zm-2 443c-84 0-133-41-142-147h269c-4 105-50 147-127 147zm74 260h66c0-94-54-123-142-123-89 0-143 29-143 123h66c0-52 26-68 76-68 51 0 77 16 77 68z"/><glyph glyph-name="ecaron" unicode="ě" horiz-adv-x="547" d="M284 624l71 67h93v-2L325 574h-83L120 689v2h96zm3-636C141-12 57 67 57 243c0 167 81 256 232 256 144 0 208-100 208-235 0-15-1-30-2-46H142c6-118 56-161 147-161 70 0 113 18 143 85l64-33C457 24 383-12 287-12zm-2 443c-84 0-133-41-142-147h269c-4 105-50 147-127 147z"/><glyph glyph-name="ecircumflex" unicode="ê" horiz-adv-x="547" d="M284 643l-70-69h-93v3l122 114h83l123-114v-3h-98zm3-655C141-12 57 67 57 243c0 167 81 256 232 256 144 0 208-100 208-235 0-15-1-30-2-46H142c6-118 56-161 147-161 70 0 113 18 143 85l64-33C457 24 383-12 287-12zm-2 443c-84 0-133-41-142-147h269c-4 105-50 147-127 147z"/><glyph glyph-name="edieresis" unicode="ë" horiz-adv-x="547" d="M136 637c0 37 23 56 60 56s59-19 59-56-22-57-59-57-60 20-60 57zm173 0c0 37 23 56 60 56s59-19 59-56-22-57-59-57-60 20-60 57zM287-12C141-12 57 67 57 243c0 167 81 256 232 256 144 0 208-100 208-235 0-15-1-30-2-46H142c6-118 56-161 147-161 70 0 113 18 143 85l64-33C457 24 383-12 287-12zm-2 443c-84 0-133-41-142-147h269c-4 105-50 147-127 147z"/><glyph glyph-name="edotaccent" unicode="ė" horiz-adv-x="547" d="M287-12C141-12 57 67 57 243c0 167 81 256 232 256 144 0 208-100 208-235 0-15-1-30-2-46H142c6-118 56-161 147-161 70 0 113 18 143 85l64-33C457 24 383-12 287-12zm-2 443c-84 0-133-41-142-147h269c-4 105-50 147-127 147zm-60 206c0 37 23 56 60 56s59-19 59-56-22-57-59-57-60 20-60 57z"/><glyph glyph-name="egrave" unicode="è" horiz-adv-x="547" d="M287-12C141-12 57 67 57 243c0 167 81 256 232 256 144 0 208-100 208-235 0-15-1-30-2-46H142c6-118 56-161 147-161 70 0 113 18 143 85l64-33C457 24 383-12 287-12zm-2 443c-84 0-133-41-142-147h269c-4 105-50 147-127 147zm-31 143L139 685v6h111l77-113v-4h-73z"/><glyph glyph-name="emacron" unicode="ē" horiz-adv-x="547" d="M287-12C141-12 57 67 57 243c0 167 81 256 232 256 144 0 208-100 208-235 0-15-1-30-2-46H142c6-118 56-161 147-161 70 0 113 18 143 85l64-33C457 24 383-12 287-12zm-2 443c-84 0-133-41-142-147h269c-4 105-50 147-127 147zm126 229v-59H157v59h254z"/><glyph glyph-name="ntilde" unicode="ñ" horiz-adv-x="630" d="M93 487h75l9-93c37 76 108 105 187 105 122 0 180-67 180-195V0h-86v284c0 102-43 142-120 142-95 0-156-66-159-183V0H93v487zm329 197h65c6-77-45-101-88-101-56 0-95 41-131 41-24 0-29-18-29-37h-66c-4 77 43 101 87 101 59 0 97-41 133-41 24 0 29 17 29 37z"/><glyph glyph-name="ncaron" unicode="ň" horiz-adv-x="630" d="M332 624l71 67h93v-2L373 574h-83L168 689v2h96zM93 487h75l9-93c37 76 108 105 187 105 122 0 180-67 180-195V0h-86v284c0 102-43 142-120 142-95 0-156-66-159-183V0H93v487z"/><glyph glyph-name="nacute" unicode="ń" horiz-adv-x="630" d="M478 685L364 574h-73v4l76 113h111v-6zM93 487h75l9-93c37 76 108 105 187 105 122 0 180-67 180-195V0h-86v284c0 102-43 142-120 142-95 0-156-66-159-183V0H93v487z"/><glyph glyph-name="racute" unicode="ŕ" horiz-adv-x="381" d="M362 685L248 574h-73v4l76 113h111v-6zM93 0v487h74l9-103c34 80 103 117 186 111v-82c-120 12-180-54-183-179V0H93z"/><glyph glyph-name="rcaron" unicode="ř" horiz-adv-x="381" d="M226 624l71 67h93v-2L267 574h-83L62 689v2h96zM93 0v487h74l9-103c34 80 103 117 186 111v-82c-120 12-180-54-183-179V0H93z"/><glyph glyph-name="backslash" unicode="\" horiz-adv-x="511" d="M408 0L5 700h89L497 0h-89z"/><glyph glyph-name="doublebar" unicode="‖" horiz-adv-x="447" d="M110-65v831h78V-65h-78zm150 0v831h78V-65h-78z"/><glyph glyph-name="plus" unicode="+" horiz-adv-x="506" d="M291 110h-75v164H50v71h166v165h75V345h165v-71H291V110z"/><glyph glyph-name="minus" unicode="−" horiz-adv-x="506" d="M456 345v-71H50v71h406z"/><glyph glyph-name="plusminus" unicode="±" horiz-adv-x="506" d="M291 136h-75v151H50v70h166v153h75V357h165v-70H291V136zm165-65V0H50v71h406z"/><glyph glyph-name="multiply" unicode="×" horiz-adv-x="493" d="M120 140l-49 49 125 124L70 440l52 52 126-127 126 126 48-48-126-126 127-126-52-52-127 126z"/><glyph glyph-name="divide" unicode="÷" horiz-adv-x="506" d="M456 345v-71H50v71h406zM193 147c0 38 22 57 59 57s60-19 60-57c0-37-23-57-60-57s-59 20-59 57zm0 328c0 37 22 57 59 57s60-20 60-57c0-36-23-57-60-57s-59 21-59 57z"/><glyph glyph-name="equal" unicode="=" horiz-adv-x="506" d="M456 273v-71H50v71h406zm0 144v-71H50v71h406z"/><glyph glyph-name="notequal" unicode="≠" horiz-adv-x="506" d="M50 346v71h243l62 85h76l-62-85h87v-71H318l-53-73h191v-71H213l-59-83H77l60 83H50v71h138l54 73H50z"/><glyph glyph-name="approxequal" unicode="≈" horiz-adv-x="506" d="M347 398c27 0 75 6 109 29v-72c-29-17-78-26-117-26-72 0-111 34-177 34-28 0-76-5-112-28v72c30 17 77 25 115 25 74 0 115-34 182-34zm0-150c27 0 75 6 109 29v-72c-29-17-78-26-117-26-72 0-111 34-177 34-28 0-76-5-112-28v72c30 17 77 25 115 25 74 0 115-34 182-34z"/><glyph glyph-name="less" unicode="&lt;" horiz-adv-x="490" d="M361 524l42-56-219-158 220-157-44-60L83 289v39z"/><glyph glyph-name="greater" unicode="&gt;" horiz-adv-x="490" d="M129 93l-42 56 220 158L86 465l44 59 277-196v-38z"/><glyph glyph-name="lessequal" unicode="≤" horiz-adv-x="510" d="M375 523l37-56-204-134 205-133-38-60-273 172v39zM86 0v71h335V0H86z"/><glyph glyph-name="greaterequal" unicode="≥" horiz-adv-x="510" d="M139 140l-36 57 204 134-205 134 38 58 273-171v-38zm282-69V0H86v71h335z"/><glyph glyph-name="asciicircum" unicode="^" horiz-adv-x="434" d="M175 700h85l149-315v-2h-88L217 614 110 383H25v2z"/><glyph glyph-name="numbersign" unicode="#" horiz-adv-x="724" d="M98 441l20 66h112l61 193h88l-61-193h190l62 193h88l-62-193h109l-19-66H575l-51-163h119l-20-66H502L436 0h-88l66 212H225L159 0H70l67 212H36l20 66h102l51 163H98zm200 0l-52-163h190l51 163H298z"/><glyph glyph-name="at.cap" unicode="" horiz-adv-x="818" d="M683 106C623 43 534 7 419 7 200 7 72 144 72 350c0 205 128 341 347 341 212 0 326-125 326-312 0-117-54-190-153-190-51 0-87 18-98 65-21-46-63-73-124-73-66 0-115 35-115 102 0 61 42 107 152 107h82c-2 69-32 89-91 89-49 0-78-17-96-43l-32 35c25 38 68 58 134 58 85 0 144-36 144-140v-94c0-44 16-66 58-66 56 0 96 50 96 148 0 184-115 275-283 275-180 0-303-103-303-302 0-201 123-303 304-303 99 0 182 29 237 88zM383 229c61 0 104 43 105 115v1h-83c-61 0-91-18-91-60 0-36 24-56 69-56z"/><glyph glyph-name="uni2080" unicode="₀" horiz-adv-x="432" d="M215 418c118 0 170-66 170-214 0-147-53-214-170-214C96-10 43 55 43 204c0 148 53 214 172 214zm0-61c-65 0-100-36-100-154 0-116 35-152 99-152s99 36 99 153c0 116-35 153-98 153z"/><glyph glyph-name="uni2081" unicode="₁" horiz-adv-x="225" d="M162 0H90v320l-51-32-28 57 105 64h46V0z"/><glyph glyph-name="uni2082" unicode="₂" horiz-adv-x="370" d="M33 0v61l133 119c56 50 80 79 80 116 0 43-27 60-72 60-50 0-76-19-98-63l-50 37c32 63 81 88 155 88 84 0 138-38 138-115 0-54-30-96-102-161l-85-78 203 3V0H33z"/><glyph glyph-name="uni2083" unicode="₃" horiz-adv-x="372" d="M177-10C104-10 55 13 25 64l51 39c22-37 52-53 96-53 55 0 87 22 87 68 0 39-24 62-74 62h-53v60h52c40 0 63 21 63 58 0 41-26 59-74 59-43 0-68-14-91-55l-49 35c29 57 76 81 147 81 86 0 140-38 140-114 0-39-20-72-56-92 41-14 66-45 66-93 0-76-49-129-153-129z"/><glyph glyph-name="uni2084" unicode="₄" horiz-adv-x="395" d="M25 97v51l130 260h72L101 161h150v167h67V161h57V97h-57V0h-67v97H25z"/><glyph glyph-name="uni2085" unicode="₅" horiz-adv-x="360" d="M119 347l-11-106c25 12 53 18 85 18 78 0 140-36 140-128 0-85-55-141-158-141-68 0-120 21-150 70 4 4 46 37 50 40 21-34 52-50 98-50 53 0 88 30 88 80s-31 74-87 74c-34 0-65-11-89-28l-43 22 20 209h251v-61z"/><glyph glyph-name="uni2086" unicode="₆" horiz-adv-x="408" d="M216-10C109-10 43 53 43 203c0 145 61 215 175 215 65 0 114-23 139-69l-49-39c-17 31-46 48-90 48-62 0-105-36-104-157v-13c17 40 58 67 113 67 85 0 135-46 135-127S314-10 216-10zm-88 134c0-45 31-75 82-75 48 0 83 25 83 76 0 46-27 74-82 74-53 0-83-30-83-75z"/><glyph glyph-name="uni2087" unicode="₇" horiz-adv-x="313" d="M171 0H96c0 131 50 262 131 343l-204-1v65h286v-59C222 286 171 149 171 0z"/><glyph glyph-name="uni2088" unicode="₈" horiz-adv-x="397" d="M197-10C98-10 42 34 42 111c0 55 29 87 73 101-36 16-58 47-58 91 0 77 48 115 140 115s141-38 141-114c0-45-23-76-58-92 43-14 72-47 72-101 0-77-55-121-155-121zm83 123c0 43-31 67-82 67-53 0-85-24-85-67s31-67 84-67 83 24 83 67zm-8 189c0 38-28 58-74 58-49 0-76-20-76-58 0-39 26-62 75-62s75 24 75 62z"/><glyph glyph-name="uni2089" unicode="₉" horiz-adv-x="408" d="M185-10C120-10 71 12 46 56l48 39c19-31 49-45 90-45 81 0 106 64 104 155v12c-16-41-57-69-112-69-85 0-136 47-136 130s50 140 149 140c105 0 171-64 171-213 0-147-62-215-175-215zm90 291c0 48-33 77-83 77-48 0-82-26-82-77 0-48 26-77 82-77 52 0 83 31 83 77z"/><glyph glyph-name="uni208D" unicode="₍" horiz-adv-x="216" d="M193-7l-6-58C78-55 28 25 28 180c0 153 50 234 159 243l6-58c-68-8-103-54-103-185C90 48 125 3 193-7z"/><glyph glyph-name="uni208E" unicode="₎" horiz-adv-x="216" d="M29-65L23-7C91 3 126 48 126 180c0 131-35 177-103 185l7 58c108-9 159-90 159-243C189 25 138-55 29-65z"/><glyph glyph-name="uni208A" unicode="₊" horiz-adv-x="309" d="M184 62h-58v92H34v53h92v93h58v-93h92v-53h-92V62z"/><glyph glyph-name="uni208C" unicode="₌" horiz-adv-x="309" d="M276 164v-55H34v55h242zm0 87v-55H34v55h242z"/><glyph glyph-name="uni208B" unicode="₋" horiz-adv-x="309" d="M276 207v-53H34v53h242z"/><glyph glyph-name="uni2070" unicode="⁰" horiz-adv-x="432" d="M215 712c118 0 170-66 170-214 0-147-53-214-170-214-119 0-172 65-172 214 0 148 53 214 172 214zm0-61c-65 0-100-36-100-154 0-116 35-152 99-152s99 36 99 153c0 116-35 153-98 153z"/><glyph glyph-name="onesuperior" unicode="¹" horiz-adv-x="225" d="M162 294H90v320l-51-32-28 57 105 64h46V294z"/><glyph glyph-name="twosuperior" unicode="²" horiz-adv-x="370" d="M33 294v61l133 119c56 50 80 79 80 116 0 43-27 60-72 60-50 0-76-19-98-63l-50 37c32 63 81 88 155 88 84 0 138-38 138-115 0-54-30-96-102-161l-85-78 203 3v-67H33z"/><glyph glyph-name="threesuperior" unicode="³" horiz-adv-x="372" d="M177 284c-73 0-122 23-152 74l51 39c22-37 52-53 96-53 55 0 87 22 87 68 0 39-24 62-74 62h-53v60h52c40 0 63 21 63 58 0 41-26 59-74 59-43 0-68-14-91-55l-49 35c29 57 76 81 147 81 86 0 140-38 140-114 0-39-20-72-56-92 41-14 66-45 66-93 0-76-49-129-153-129z"/><glyph glyph-name="uni2074" unicode="⁴" horiz-adv-x="395" d="M25 391v51l130 260h72L101 455h150v167h67V455h57v-64h-57v-97h-67v97H25z"/><glyph glyph-name="uni2075" unicode="⁵" horiz-adv-x="360" d="M119 641l-11-106c25 12 53 18 85 18 78 0 140-36 140-128 0-85-55-141-158-141-68 0-120 21-150 70 4 4 46 37 50 40 21-34 52-50 98-50 53 0 88 30 88 80s-31 74-87 74c-34 0-65-11-89-28l-43 22 20 209h251v-61z"/><glyph glyph-name="uni2076" unicode="⁶" horiz-adv-x="408" d="M216 284c-107 0-173 63-173 213 0 145 61 215 175 215 65 0 114-23 139-69l-49-39c-17 31-46 48-90 48-62 0-105-36-104-157v-13c17 40 58 67 113 67 85 0 135-46 135-127s-48-138-146-138zm-88 134c0-45 31-75 82-75 48 0 83 25 83 76 0 46-27 74-82 74-53 0-83-30-83-75z"/><glyph glyph-name="uni2077" unicode="⁷" horiz-adv-x="313" d="M171 294H96c0 131 50 262 131 343l-204-1v65h286v-59c-87-62-138-199-138-348z"/><glyph glyph-name="uni2078" unicode="⁸" horiz-adv-x="397" d="M197 284c-99 0-155 44-155 121 0 55 29 87 73 101-36 16-58 47-58 91 0 77 48 115 140 115s141-38 141-114c0-45-23-76-58-92 43-14 72-47 72-101 0-77-55-121-155-121zm83 123c0 43-31 67-82 67-53 0-85-24-85-67s31-67 84-67 83 24 83 67zm-8 189c0 38-28 58-74 58-49 0-76-20-76-58 0-39 26-62 75-62s75 24 75 62z"/><glyph glyph-name="uni2079" unicode="⁹" horiz-adv-x="408" d="M185 284c-65 0-114 22-139 66l48 39c19-31 49-45 90-45 81 0 106 64 104 155v12c-16-41-57-69-112-69-85 0-136 47-136 130s50 140 149 140c105 0 171-64 171-213 0-147-62-215-175-215zm90 291c0 48-33 77-83 77-48 0-82-26-82-77 0-48 26-77 82-77 52 0 83 31 83 77z"/><glyph glyph-name="uni207A" unicode="⁺" horiz-adv-x="309" d="M184 356h-58v92H34v53h92v93h58v-93h92v-53h-92v-92z"/><glyph glyph-name="uni207B" unicode="⁻" horiz-adv-x="309" d="M276 501v-53H34v53h242z"/><glyph glyph-name="uni207C" unicode="⁼" horiz-adv-x="309" d="M276 458v-55H34v55h242zm0 87v-55H34v55h242z"/><glyph glyph-name="uni207D" unicode="⁽" horiz-adv-x="219" d="M193 287l-6-58C78 239 28 319 28 474c0 153 50 234 159 243l6-58c-68-8-103-54-103-185 0-132 35-177 103-187z"/><glyph glyph-name="uni207E" unicode="⁾" horiz-adv-x="219" d="M29 229l-6 58c68 10 103 55 103 187 0 131-35 177-103 185l7 58c108-9 159-90 159-243 0-155-51-235-160-245z"/><glyph glyph-name="onehalf" unicode="½" horiz-adv-x="827" d="M490 0v61l133 119c56 50 80 79 80 116 0 43-27 60-72 60-50 0-76-19-98-63l-50 37c32 63 81 88 155 88 84 0 138-38 138-115 0-54-30-96-102-161l-85-78 203 3V0H490zM162 293H90v320l-51-32-28 57 105 64h46V293zm394 407L218 0h-81l339 700h80z"/><glyph glyph-name="uni2153" unicode="⅓" horiz-adv-x="829" d="M634-10c-73 0-122 23-152 74l51 39c22-37 52-53 96-53 55 0 87 22 87 68 0 39-24 62-74 62h-53v60h52c40 0 63 21 63 58 0 41-26 59-74 59-43 0-68-14-91-55l-49 35c29 57 76 81 147 81 86 0 140-38 140-114 0-39-20-72-56-92 41-14 66-45 66-93 0-76-49-129-153-129zM162 293H90v320l-51-32-28 57 105 64h46V293zm394 407L218 0h-81l339 700h80z"/><glyph glyph-name="onequarter" unicode="¼" horiz-adv-x="852" d="M162 293H90v320l-51-32-28 57 105 64h46V293zm394 407L218 0h-81l339 700h80zM482 97v51l130 260h72L558 161h150v167h67V161h57V97h-57V0h-67v97H482z"/><glyph glyph-name="uni2155" unicode="⅕" horiz-adv-x="817" d="M162 293H90v320l-51-32-28 57 105 64h46V293zm414 54l-11-106c25 12 53 18 85 18 78 0 140-36 140-128 0-85-55-141-158-141-68 0-120 21-150 70 4 4 46 37 50 40 21-34 52-50 98-50 53 0 88 30 88 80s-31 74-87 74c-34 0-65-11-89-28l-43 22 20 209h251v-61zm-20 353L218 0h-81l339 700h80z"/><glyph glyph-name="uni2159" unicode="⅙" horiz-adv-x="865" d="M162 293H90v320l-51-32-28 57 105 64h46V293zM673-10c-107 0-173 63-173 213 0 145 61 215 175 215 65 0 114-23 139-69l-49-39c-17 31-46 48-90 48-62 0-105-36-104-157v-13c17 40 58 67 113 67 85 0 135-46 135-127S771-10 673-10zm-88 134c0-45 31-75 82-75 48 0 83 25 83 76 0 46-27 74-82 74-53 0-83-30-83-75zm-29 576L218 0h-81l339 700h80z"/><glyph glyph-name="uni215B" unicode="⅛" horiz-adv-x="854" d="M162 293H90v320l-51-32-28 57 105 64h46V293zM654-10c-99 0-155 44-155 121 0 55 29 87 73 101-36 16-58 47-58 91 0 77 48 115 140 115s141-38 141-114c0-45-23-76-58-92 43-14 72-47 72-101 0-77-55-121-155-121zm83 123c0 43-31 67-82 67-53 0-85-24-85-67s31-67 84-67 83 24 83 67zm-8 189c0 38-28 58-74 58-49 0-76-20-76-58 0-39 26-62 75-62s75 24 75 62zM556 700L218 0h-81l339 700h80z"/><glyph glyph-name="uni2154" unicode="⅔" horiz-adv-x="954" d="M759-10c-73 0-122 23-152 74l51 39c22-37 52-53 96-53 55 0 87 22 87 68 0 39-24 62-74 62h-53v60h52c40 0 63 21 63 58 0 41-26 59-74 59-43 0-68-14-91-55l-49 35c29 57 76 81 147 81 86 0 140-38 140-114 0-39-20-72-56-92 41-14 66-45 66-93 0-76-49-129-153-129zM33 293v61l133 119c56 50 80 79 80 116 0 43-27 60-72 60-50 0-76-19-98-63l-50 37c32 63 81 88 155 88 84 0 138-38 138-115 0-54-30-96-102-161l-85-78 203 3v-67H33zm648 407L343 0h-81l339 700h80z"/><glyph glyph-name="uni2156" unicode="⅖" horiz-adv-x="942" d="M33 293v61l133 119c56 50 80 79 80 116 0 43-27 60-72 60-50 0-76-19-98-63l-50 37c32 63 81 88 155 88 84 0 138-38 138-115 0-54-30-96-102-161l-85-78 203 3v-67H33zm668 54l-11-106c25 12 53 18 85 18 78 0 140-36 140-128 0-85-55-141-158-141-68 0-120 21-150 70 4 4 46 37 50 40 21-34 52-50 98-50 53 0 88 30 88 80s-31 74-87 74c-34 0-65-11-89-28l-43 22 20 209h251v-61zm-20 353L343 0h-81l339 700h80z"/><glyph glyph-name="uni2157" unicode="⅗" horiz-adv-x="942" d="M177 283c-73 0-122 23-152 74l51 39c22-37 52-53 96-53 55 0 87 22 87 68 0 39-24 62-74 62h-53v60h52c40 0 63 21 63 58 0 41-26 59-74 59-43 0-68-14-91-55l-49 35c29 57 76 81 147 81 86 0 140-38 140-114 0-39-20-72-56-92 41-14 66-45 66-93 0-76-49-129-153-129zm524 64l-11-106c25 12 53 18 85 18 78 0 140-36 140-128 0-85-55-141-158-141-68 0-120 21-150 70 4 4 46 37 50 40 21-34 52-50 98-50 53 0 88 30 88 80s-31 74-87 74c-34 0-65-11-89-28l-43 22 20 209h251v-61zm-20 353L343 0h-81l339 700h80z"/><glyph glyph-name="uni215C" unicode="⅜" horiz-adv-x="979" d="M177 283c-73 0-122 23-152 74l51 39c22-37 52-53 96-53 55 0 87 22 87 68 0 39-24 62-74 62h-53v60h52c40 0 63 21 63 58 0 41-26 59-74 59-43 0-68-14-91-55l-49 35c29 57 76 81 147 81 86 0 140-38 140-114 0-39-20-72-56-92 41-14 66-45 66-93 0-76-49-129-153-129zM779-10c-99 0-155 44-155 121 0 55 29 87 73 101-36 16-58 47-58 91 0 77 48 115 140 115s141-38 141-114c0-45-23-76-58-92 43-14 72-47 72-101 0-77-55-121-155-121zm83 123c0 43-31 67-82 67-53 0-85-24-85-67s31-67 84-67 83 24 83 67zm-8 189c0 38-28 58-74 58-49 0-76-20-76-58 0-39 26-62 75-62s75 24 75 62zM681 700L343 0h-81l339 700h80z"/><glyph glyph-name="uni215D" unicode="⅝" horiz-adv-x="979" d="M779-10c-99 0-155 44-155 121 0 55 29 87 73 101-36 16-58 47-58 91 0 77 48 115 140 115s141-38 141-114c0-45-23-76-58-92 43-14 72-47 72-101 0-77-55-121-155-121zm83 123c0 43-31 67-82 67-53 0-85-24-85-67s31-67 84-67 83 24 83 67zm-8 189c0 38-28 58-74 58-49 0-76-20-76-58 0-39 26-62 75-62s75 24 75 62zM119 640l-11-106c25 12 53 18 85 18 78 0 140-36 140-128 0-85-55-141-158-141-68 0-120 21-150 70 4 4 46 37 50 40 21-34 52-50 98-50 53 0 88 30 88 80s-31 74-87 74c-34 0-65-11-89-28l-43 22 20 209h251v-61zm562 60L343 0h-81l339 700h80z"/><glyph glyph-name="uni215E" unicode="⅞" horiz-adv-x="909" d="M709-10c-99 0-155 44-155 121 0 55 29 87 73 101-36 16-58 47-58 91 0 77 48 115 140 115s141-38 141-114c0-45-23-76-58-92 43-14 72-47 72-101 0-77-55-121-155-121zm83 123c0 43-31 67-82 67-53 0-85-24-85-67s31-67 84-67 83 24 83 67zm-8 189c0 38-28 58-74 58-49 0-76-20-76-58 0-39 26-62 75-62s75 24 75 62zm-613-9H96c0 131 50 262 131 343l-204-1v65h286v-59c-87-62-138-199-138-348zm440 407L273 0h-81l339 700h80z"/><glyph glyph-name="uni215A" unicode="⅚" horiz-adv-x="990" d="M119 640l-11-106c25 12 53 18 85 18 78 0 140-36 140-128 0-85-55-141-158-141-68 0-120 21-150 70 4 4 46 37 50 40 21-34 52-50 98-50 53 0 88 30 88 80s-31 74-87 74c-34 0-65-11-89-28l-43 22 20 209h251v-61zM798-10c-107 0-173 63-173 213 0 145 61 215 175 215 65 0 114-23 139-69l-49-39c-17 31-46 48-90 48-62 0-105-36-104-157v-13c17 40 58 67 113 67 85 0 135-46 135-127S896-10 798-10zm-88 134c0-45 31-75 82-75 48 0 83 25 83 76 0 46-27 74-82 74-53 0-83-30-83-75zm-29 576L343 0h-81l339 700h80z"/><glyph glyph-name="threequarters" unicode="¾" horiz-adv-x="952" d="M177 283c-73 0-122 23-152 74l51 39c22-37 52-53 96-53 55 0 87 22 87 68 0 39-24 62-74 62h-53v60h52c40 0 63 21 63 58 0 41-26 59-74 59-43 0-68-14-91-55l-49 35c29 57 76 81 147 81 86 0 140-38 140-114 0-39-20-72-56-92 41-14 66-45 66-93 0-76-49-129-153-129zm504 417L343 0h-81l339 700h80zM582 97v51l130 260h72L658 161h150v167h67V161h57V97h-57V0h-67v97H582z"/><glyph glyph-name="uni2158" unicode="⅘" horiz-adv-x="967" d="M726 347l-11-106c25 12 53 18 85 18 78 0 140-36 140-128 0-85-55-141-158-141-68 0-120 21-150 70 4 4 46 37 50 40 21-34 52-50 98-50 53 0 88 30 88 80s-31 74-87 74c-34 0-65-11-89-28l-43 22 20 209h251v-61zm-20 353L368 0h-81l339 700h80zM25 390v51l130 260h72L101 454h150v167h67V454h57v-64h-57v-97h-67v97H25z"/><glyph glyph-name="percent" unicode="%" horiz-adv-x="1044" d="M827 418c118 0 170-66 170-214 0-147-53-214-170-214-119 0-172 65-172 214 0 148 53 214 172 214zm0-61c-65 0-100-36-100-154 0-116 35-152 99-152s99 36 99 153c0 116-35 153-98 153zM215 711c118 0 170-66 170-214 0-147-53-214-170-214-119 0-172 65-172 214 0 148 53 214 172 214zm0-61c-65 0-100-36-100-154 0-116 35-152 99-152s99 36 99 153c0 116-35 153-98 153zm511 50L388 0h-81l339 700h80z"/><glyph glyph-name="perthousand" unicode="‰" horiz-adv-x="1469" d="M827 418c118 0 170-66 170-214 0-147-53-214-170-214-119 0-172 65-172 214 0 148 53 214 172 214zm0-61c-65 0-100-36-100-154 0-116 35-152 99-152s99 36 99 153c0 116-35 153-98 153zM215 711c118 0 170-66 170-214 0-147-53-214-170-214-119 0-172 65-172 214 0 148 53 214 172 214zm0-61c-65 0-100-36-100-154 0-116 35-152 99-152s99 36 99 153c0 116-35 153-98 153zm1037-232c118 0 170-66 170-214 0-147-53-214-170-214-119 0-172 65-172 214 0 148 53 214 172 214zm0-61c-65 0-100-36-100-154 0-116 35-152 99-152s99 36 99 153c0 116-35 153-98 153zM726 700L388 0h-81l339 700h80z"/><glyph glyph-name="uni215F" unicode="⅟" horiz-adv-x="831" d="M162 293H90v320l-51-32-28 57 105 64h46V293zm394 407L218 0h-81l339 700h80z"/><glyph glyph-name="yacute.school" unicode="" horiz-adv-x="613" d="M275-216c-96 0-169 28-210 115l62 44c33-66 80-89 148-89 93 0 159 42 159 151v81C399 24 337-1 273-1 146-1 87 74 87 202v285h86V214c0-97 39-145 117-145 88 0 141 64 143 180v238h86V14c0-163-101-230-244-230zm142 901L303 574h-73v4l76 113h111v-6z"/><glyph glyph-name="ycircumflex.school" unicode="" horiz-adv-x="613" d="M308 643l-70-69h-93v3l122 114h83l123-114v-3h-98zm-33-859c-96 0-169 28-210 115l62 44c33-66 80-89 148-89 93 0 159 42 159 151v81C399 24 337-1 273-1 146-1 87 74 87 202v285h86V214c0-97 39-145 117-145 88 0 141 64 143 180v238h86V14c0-163-101-230-244-230z"/><glyph glyph-name="ydieresis.school" unicode="" horiz-adv-x="613" d="M162 637c0 37 23 56 60 56s59-19 59-56-22-57-59-57-60 20-60 57zm173 0c0 37 23 56 60 56s59-19 59-56-22-57-59-57-60 20-60 57zm-60-853c-96 0-169 28-210 115l62 44c33-66 80-89 148-89 93 0 159 42 159 151v81C399 24 337-1 273-1 146-1 87 74 87 202v285h86V214c0-97 39-145 117-145 88 0 141 64 143 180v238h86V14c0-163-101-230-244-230z"/><glyph glyph-name="a.school" unicode="" horiz-adv-x="611" d="M439 0l-5 87c-32-66-92-99-172-99C129-12 57 78 57 244s77 255 216 255c74 0 131-31 163-94l9 82h73V0h-79zm-7 245c0 130-64 185-146 185-97 0-143-59-143-187S191 57 285 57c83 0 147 55 147 188z"/><glyph glyph-name="aacute.school" unicode="" horiz-adv-x="611" d="M439 0l-5 87c-32-66-92-99-172-99C129-12 57 78 57 244s77 255 216 255c74 0 131-31 163-94l9 82h73V0h-79zm-7 245c0 130-64 185-146 185-97 0-143-59-143-187S191 57 285 57c83 0 147 55 147 188zm-2 440L316 574h-73v4l76 113h111v-6z"/><glyph glyph-name="abreve.school" unicode="" horiz-adv-x="611" d="M439 0l-5 87c-32-66-92-99-172-99C129-12 57 78 57 244s77 255 216 255c74 0 131-31 163-94l9 82h73V0h-79zm-7 245c0 130-64 185-146 185-97 0-143-59-143-187S191 57 285 57c83 0 147 55 147 188zm-73 446h66c0-94-54-123-142-123-89 0-143 29-143 123h66c0-52 26-68 76-68 51 0 77 16 77 68z"/><glyph glyph-name="acircumflex.school" unicode="" horiz-adv-x="611" d="M285 643l-70-69h-93v3l122 114h83l123-114v-3h-98zM439 0l-5 87c-32-66-92-99-172-99C129-12 57 78 57 244s77 255 216 255c74 0 131-31 163-94l9 82h73V0h-79zm-7 245c0 130-64 185-146 185-97 0-143-59-143-187S191 57 285 57c83 0 147 55 147 188z"/><glyph glyph-name="adieresis.school" unicode="" horiz-adv-x="611" d="M137 637c0 37 23 56 60 56s59-19 59-56-22-57-59-57-60 20-60 57zm173 0c0 37 23 56 60 56s59-19 59-56-22-57-59-57-60 20-60 57zM439 0l-5 87c-32-66-92-99-172-99C129-12 57 78 57 244s77 255 216 255c74 0 131-31 163-94l9 82h73V0h-79zm-7 245c0 130-64 185-146 185-97 0-143-59-143-187S191 57 285 57c83 0 147 55 147 188z"/><glyph glyph-name="agrave.school" unicode="" horiz-adv-x="611" d="M439 0l-5 87c-32-66-92-99-172-99C129-12 57 78 57 244s77 255 216 255c74 0 131-31 163-94l9 82h73V0h-79zm-7 245c0 130-64 185-146 185-97 0-143-59-143-187S191 57 285 57c83 0 147 55 147 188zM255 576L140 687v6h111l77-113v-4h-73z"/><glyph glyph-name="amacron.school" unicode="" horiz-adv-x="611" d="M439 0l-5 87c-32-66-92-99-172-99C129-12 57 78 57 244s77 255 216 255c74 0 131-31 163-94l9 82h73V0h-79zm-7 245c0 130-64 185-146 185-97 0-143-59-143-187S191 57 285 57c83 0 147 55 147 188zm-20 415v-59H158v59h254z"/><glyph glyph-name="aogonek.school" unicode="" horiz-adv-x="611" d="M440 18l-5 67c-32-65-92-97-173-97C129-12 57 77 57 244s76 255 215 255c76 0 133-31 164-93l9 81h73V0c-61-5-96-55-96-101 0-37 21-50 58-50 24 0 46 6 66 18l13-56c-25-15-53-23-86-23-59 0-116 23-116 101 0 64 38 107 83 129zm-8 227c0 130-62 185-147 185-97 0-142-59-142-187S191 57 285 57c85 0 147 55 147 188z"/><glyph glyph-name="aring.school" unicode="" horiz-adv-x="611" d="M439 0l-5 87c-32-66-92-99-172-99C129-12 57 78 57 244s77 255 216 255c74 0 131-31 163-94l9 82h73V0h-79zm-7 245c0 130-64 185-146 185-97 0-143-59-143-187S191 57 285 57c83 0 147 55 147 188zM187 641c0 58 41 94 97 94 55 0 96-36 96-94s-41-94-97-94c-55 0-96 36-96 94zm48 0c0-30 20-53 48-53s49 23 49 53c0 31-21 52-48 52-29 0-49-21-49-52z"/><glyph glyph-name="atilde.school" unicode="" horiz-adv-x="611" d="M439 0l-5 87c-32-66-92-99-172-99C129-12 57 78 57 244s77 255 216 255c74 0 131-31 163-94l9 82h73V0h-79zm-7 245c0 130-64 185-146 185-97 0-143-59-143-187S191 57 285 57c83 0 147 55 147 188zm-57 439h65c6-77-45-101-88-101-56 0-95 41-131 41-24 0-29-18-29-37h-66c-4 77 43 101 87 101 59 0 97-41 133-41 24 0 29 17 29 37z"/><glyph glyph-name="underscore" unicode="_" horiz-adv-x="480" d="M485 0v-66H-5V0h490z"/><glyph glyph-name="ordfeminine" unicode="ª" horiz-adv-x="410" d="M163 348c-69 0-119 38-119 108 0 63 43 111 157 111h84c-2 70-33 90-91 90-49 0-80-19-100-46l-36 42c27 38 75 59 143 59 90 0 151-36 151-144V359h-59l-5 58c-21-43-63-69-125-69zm18 55c62 0 104 44 104 114v2h-85c-63 0-91-20-91-62 0-33 23-54 72-54z"/><glyph glyph-name="ordmasculine" unicode="º" horiz-adv-x="424" d="M315 531c0 92-34 128-103 128-70 0-103-36-103-128 0-94 34-129 103-129s103 35 103 129zm-273 0c0 125 63 181 170 181 112 0 170-54 170-181 0-124-60-183-170-183-109 0-170 55-170 183z"/><glyph glyph-name="ordfeminine.school" unicode="" horiz-adv-x="441" d="M311 359l-4 57c-22-45-63-68-120-68-93 0-145 63-145 182 0 120 55 182 153 182 52 0 92-22 114-66l7 55h56V359h-61zm-6 172c0 89-42 127-98 127-66 0-98-40-98-128s34-127 97-127c58 0 99 38 99 128z"/><glyph glyph-name="cordinal" unicode="" horiz-adv-x="394" d="M209 348c-105 0-166 54-166 183 0 125 61 181 167 181 72 0 116-28 142-77l-48-33c-18 36-49 57-94 57-69 0-101-34-101-129 0-93 34-127 101-127 48 0 76 15 96 58l51-26c-27-61-77-87-148-87z"/><glyph glyph-name="emspace" horiz-adv-x="1000"/><glyph glyph-name="enspace" horiz-adv-x="500"/><glyph glyph-name="figuredash" unicode="‒" d="M556 371v-72H68v72h488z"/><glyph glyph-name="figurespace"/><glyph glyph-name="fourperemspace" horiz-adv-x="250"/><glyph glyph-name="hairspace" horiz-adv-x="100"/><glyph glyph-name="nbspace" horiz-adv-x="176"/><glyph glyph-name="onethirdemdash" unicode="" horiz-adv-x="380" d="M332 371v-72H49v72h283z"/><glyph glyph-name="periodcentered" unicode="·" horiz-adv-x="230" d="M56 337c0 38 23 57 60 57 36 0 58-19 58-57 0-36-22-57-58-57-37 0-60 21-60 57z"/><glyph glyph-name="punctuationspace" horiz-adv-x="230"/><glyph glyph-name="reversequotedblleft" unicode="‟" horiz-adv-x="384" d="M107 611c4-43 27-76 66-89l-17-39C87 502 54 567 54 639c0 60 23 83 61 83 34 0 57-18 57-56 0-35-22-56-57-56-4 0-8 1-8 1zm158 0c4-43 27-76 66-89l-17-39c-69 19-102 84-102 156 0 60 23 83 61 83 34 0 57-18 57-56 0-35-22-56-57-56-4 0-8 1-8 1z"/><glyph glyph-name="reversequoteleft" unicode="‛" horiz-adv-x="228" d="M109 612c4-43 27-76 66-89l-17-39C89 503 56 568 56 640c0 60 23 83 61 83 34 0 57-18 57-56 0-35-22-56-57-56-4 0-8 1-8 1z"/><glyph glyph-name="sixperemspace" horiz-adv-x="167"/><glyph glyph-name="thinspace" horiz-adv-x="200"/><glyph glyph-name="threeperemspace" horiz-adv-x="333"/><glyph glyph-name="threequarteremdash" unicode="" horiz-adv-x="693" d="M645 371v-72H49v72h596z"/><glyph glyph-name="uni00AD" unicode="­" horiz-adv-x="410" d="M362 371v-72H49v72h313z"/><glyph glyph-name="uni2015" unicode="―" horiz-adv-x="1085" d="M1037 371v-72H49v72h988z"/><glyph glyph-name="zerowidthspace" unicode="​" horiz-adv-x="0"/><glyph glyph-name="wacute" unicode="ẃ" horiz-adv-x="732" d="M324 484h89L528 97l115 390h82L570 0h-91L366 387 255 0h-91L7 487h86L210 98zm189 201L399 574h-73v4l76 113h111v-6z"/><glyph glyph-name="wdieresis" unicode="ẅ" horiz-adv-x="732" d="M324 484h89L528 97l115 390h82L570 0h-91L366 387 255 0h-91L7 487h86L210 98zM220 637c0 37 23 56 60 56s59-19 59-56-22-57-59-57-60 20-60 57zm173 0c0 37 23 56 60 56s59-19 59-56-22-57-59-57-60 20-60 57z"/><glyph glyph-name="wgrave" unicode="ẁ" horiz-adv-x="732" d="M324 484h89L528 97l115 390h82L570 0h-91L366 387 255 0h-91L7 487h86L210 98zm13 92L222 687v6h111l77-113v-4h-73z"/><glyph glyph-name="zero.inf" unicode="" horiz-adv-x="432" d="M215 218c118 0 170-66 170-214 0-147-53-214-170-214C96-210 43-145 43 4c0 148 53 214 172 214zm0-61c-65 0-100-36-100-154 0-116 35-152 99-152s99 36 99 153c0 116-35 153-98 153z"/><glyph glyph-name="one.inf" unicode="" horiz-adv-x="225" d="M162-200H90v320L39 88l-28 57 105 64h46v-409z"/><glyph glyph-name="two.inf" unicode="" horiz-adv-x="370" d="M33-200v61L166-20c56 50 80 79 80 116 0 43-27 60-72 60-50 0-76-19-98-63l-50 37c32 63 81 88 155 88 84 0 138-38 138-115 0-54-30-96-102-161l-85-78 203 3v-67H33z"/><glyph glyph-name="three.inf" unicode="" horiz-adv-x="372" d="M177-210c-73 0-122 23-152 74l51 39c22-37 52-53 96-53 55 0 87 22 87 68 0 39-24 62-74 62h-53v60h52c40 0 63 21 63 58 0 41-26 59-74 59-43 0-68-14-91-55l-49 35c29 57 76 81 147 81 86 0 140-38 140-114 0-39-20-72-56-92 41-14 66-45 66-93 0-76-49-129-153-129z"/><glyph glyph-name="four.inf" unicode="" horiz-adv-x="395" d="M25-103v51l130 260h72L101-39h150v167h67V-39h57v-64h-57v-97h-67v97H25z"/><glyph glyph-name="five.inf" unicode="" horiz-adv-x="360" d="M119 147L108 41c25 12 53 18 85 18 78 0 140-36 140-128 0-85-55-141-158-141-68 0-120 21-150 70 4 4 46 37 50 40 21-34 52-50 98-50 53 0 88 30 88 80S230 4 174 4c-34 0-65-11-89-28L42-2l20 209h251v-61z"/><glyph glyph-name="six.inf" unicode="" horiz-adv-x="408" d="M216-210C109-210 43-147 43 3c0 145 61 215 175 215 65 0 114-23 139-69l-49-39c-17 31-46 48-90 48-62 0-105-36-104-157v-13c17 40 58 67 113 67 85 0 135-46 135-127s-48-138-146-138zM128-76c0-45 31-75 82-75 48 0 83 25 83 76 0 46-27 74-82 74-53 0-83-30-83-75z"/><glyph glyph-name="seven.inf" unicode="" horiz-adv-x="313" d="M171-200H96c0 131 50 262 131 343l-204-1v65h286v-59C222 86 171-51 171-200z"/><glyph glyph-name="eight.inf" unicode="" horiz-adv-x="397" d="M197-210C98-210 42-166 42-89c0 55 29 87 73 101-36 16-58 47-58 91 0 77 48 115 140 115s141-38 141-114c0-45-23-76-58-92 43-14 72-47 72-101 0-77-55-121-155-121zm83 123c0 43-31 67-82 67-53 0-85-24-85-67s31-67 84-67 83 24 83 67zm-8 189c0 38-28 58-74 58-49 0-76-20-76-58 0-39 26-62 75-62s75 24 75 62z"/><glyph glyph-name="nine.inf" unicode="" horiz-adv-x="408" d="M185-210c-65 0-114 22-139 66l48 39c19-31 49-45 90-45 81 0 106 64 104 155v12c-16-41-57-69-112-69C91-52 40-5 40 78s50 140 149 140c105 0 171-64 171-213 0-147-62-215-175-215zm90 291c0 48-33 77-83 77-48 0-82-26-82-77 0-48 26-77 82-77 52 0 83 31 83 77z"/><glyph glyph-name="plus.inf" unicode="" horiz-adv-x="309" d="M184-138h-58v92H34V7h92v93h58V7h92v-53h-92v-92z"/><glyph glyph-name="minus.inf" unicode="" horiz-adv-x="309" d="M276 7v-53H34V7h242z"/><glyph glyph-name="equal.inf" unicode="" horiz-adv-x="309" d="M276-36v-55H34v55h242zm0 87V-4H34v55h242z"/><glyph glyph-name="parenleft.inf" unicode="" horiz-adv-x="216" d="M193-207l-6-58C78-255 28-175 28-20c0 153 50 234 159 243l6-58c-68-8-103-54-103-185 0-132 35-177 103-187z"/><glyph glyph-name="parenright.inf" unicode="" horiz-adv-x="216" d="M29-265l-6 58c68 10 103 55 103 187 0 131-35 177-103 185l7 58c108-9 159-90 159-243 0-155-51-235-160-245z"/><glyph glyph-name="Wacute" unicode="Ẃ" horiz-adv-x="911" d="M413 698h87l158-569 160 571h86L699 0h-85L455 572 297 0h-86L7 700h91l157-575zm189 200L488 787h-73v4l76 113h111v-6z"/><glyph glyph-name="Wdieresis" unicode="Ẅ" horiz-adv-x="911" d="M413 698h87l158-569 160 571h86L699 0h-85L455 572 297 0h-86L7 700h91l157-575zM309 850c0 37 23 56 60 56s59-19 59-56-22-57-59-57-60 20-60 57zm173 0c0 37 23 56 60 56s59-19 59-56-22-57-59-57-60 20-60 57z"/><glyph glyph-name="Wgrave" unicode="Ẁ" horiz-adv-x="911" d="M413 698h87l158-569 160 571h86L699 0h-85L455 572 297 0h-86L7 700h91l157-575zm13 91L311 900v6h111l77-113v-4h-73z"/><glyph glyph-name="zero.OT" unicode="" d="M312 612c176 0 270-91 270-313 0-217-94-311-270-311C137-12 43 80 43 300c0 222 94 312 269 312zm0-70c-117 0-183-54-183-242 0-186 66-242 183-242 119 0 184 55 184 242 0 184-65 242-184 242z"/><glyph glyph-name="one.OT" unicode="" d="M102 0v78h163v411l-87-64-37 69 155 106h55V78h172V0H102z"/><glyph glyph-name="two.OT" unicode="" d="M93 0v83l200 169c105 89 147 130 147 194 0 66-46 95-126 95-78 0-127-34-161-108l-62 44c46 90 117 135 228 135 139 1 208-59 208-161 0-81-43-138-176-251L201 73l355 1V0H93z"/><glyph glyph-name="three.OT" unicode="" d="M308-112C189-112 110-74 62 7l62 49c38-67 96-98 181-98 109 0 170 47 170 144 0 79-44 126-138 126h-99v76h96c73 0 122 45 122 120 0 82-55 118-149 118-79 0-129-29-171-105l-62 47c49 88 123 128 241 128 139 0 228-58 228-185 0-65-33-125-96-158 75-22 116-80 116-161 0-126-78-220-255-220z"/><glyph glyph-name="four.OT" unicode="" d="M22 83v60l234 457h91L117 159h293v319h87V159h106V83H497v-183h-87V83H22z"/><glyph glyph-name="five.OT" unicode="" d="M191 524l-21-219c43 27 102 40 159 40 125 0 236-61 236-217 0-141-91-240-265-240C192-112 107-74 60 8l63 50C162-9 221-43 301-43c112 0 177 66 177 169 0 101-62 150-167 150-74 0-129-24-176-61l-49 26 35 359h407v-76H191z"/><glyph glyph-name="six.OT" unicode="" d="M330-12C164-12 51 94 51 348c0 256 105 364 283 364 109 0 185-36 226-114l-65-47c-36 64-91 91-165 91-110 0-193-67-193-302v-26c28 78 108 125 202 125 148 0 235-79 235-218S491-12 330-12zM161 209c0-90 62-152 165-152 94 0 161 49 161 156 0 99-53 156-163 156-98 0-163-65-163-160z"/><glyph glyph-name="seven.OT" unicode="" d="M206-100c0 222 84 476 230 624H78v76h469v-77c-158-93-253-367-254-623h-87z"/><glyph glyph-name="eight.OT" unicode="" d="M312-12C152-12 59 66 59 192c0 97 58 154 135 172-67 23-111 78-111 160 0 124 81 188 229 188 149 0 230-64 230-187 0-82-43-138-110-161 76-19 134-75 134-172 0-126-93-204-254-204zm168 207c0 86-65 133-167 133-103 0-168-47-168-133 0-90 61-137 167-137s168 47 168 137zm-22 329c0 80-52 121-146 121s-145-41-145-121c0-75 49-123 145-123 98 0 146 49 146 123z"/><glyph glyph-name="nine.OT" unicode="" d="M291-112C182-112 106-76 65 2l65 47c36-64 91-91 165-91 110 0 193 67 193 302v26c-28-81-108-130-202-130-148 0-235 81-235 223 0 139 83 233 244 233 166 0 279-106 279-360 0-256-105-364-283-364zm173 503c0 90-62 152-165 152-94 0-161-51-161-161 0-99 53-156 163-156 98 0 163 67 163 165z"/><glyph glyph-name="eogonek" unicode="ę" horiz-adv-x="547" d="M222-111c0 42 16 76 40 100C131-2 57 77 57 243c0 167 81 256 232 256 144 0 208-100 208-235 0-15-1-30-2-46H141c6-118 57-161 148-161 70 0 113 18 143 85l64-33C468 48 422 12 363-3c-49-13-76-57-76-98 0-37 21-50 58-50 24 0 46 6 66 18l13-56c-25-15-53-23-86-23-59 0-116 23-116 101zm63 542c-84 0-134-41-143-147h270c-4 105-50 147-127 147z"/><glyph glyph-name="zero.LP" unicode="" horiz-adv-x="727" d="M362 712c193 0 279-105 279-362 0-252-87-362-279-362C171-12 85 94 85 350c0 257 86 362 277 362zm0-71c-122 0-189-69-189-292 0-224 67-291 189-291 124 0 191 67 191 293 0 217-67 290-191 290z"/><glyph glyph-name="one.LP" unicode="" horiz-adv-x="337" d="M230 0h-87v589l-95-64-38 69 163 106h57V0z"/><glyph glyph-name="two.LP" unicode="" horiz-adv-x="596" d="M51 0v83l232 214c106 97 150 155 150 226 0 80-51 119-140 119-92 0-144-39-183-122l-64 46c51 101 128 146 254 146 145 0 220-68 220-185 0-89-49-162-181-287L161 73l393 1V0H51z"/><glyph glyph-name="three.LP" unicode="" horiz-adv-x="615" d="M289-12C170-12 91 26 43 107l62 49c38-67 96-98 181-98 109 0 170 47 170 144 0 79-44 126-138 126h-99v76h96c73 0 122 45 122 120 0 82-55 118-149 118-79 0-129-29-171-105l-62 47c49 88 123 128 241 128 139 0 228-58 228-185 0-65-33-125-96-158 75-22 116-80 116-161 0-126-78-220-255-220z"/><glyph glyph-name="four.LP" unicode="" horiz-adv-x="639" d="M36 183v60l234 457h91L131 259h293v319h87V259h106v-76H511V0h-87v183H36z"/><glyph glyph-name="five.LP" unicode="" horiz-adv-x="592" d="M177 624l-21-219c43 27 102 40 159 40 125 0 236-61 236-217 0-141-91-240-265-240C178-12 93 26 46 108l63 50c39-67 98-101 178-101 112 0 177 66 177 169 0 101-62 150-167 150-74 0-129-24-176-61l-49 26 35 359h407v-76H177z"/><glyph glyph-name="six.LP" unicode="" horiz-adv-x="677" d="M365-12C199-12 86 94 86 348c0 256 105 364 283 364 109 0 185-36 226-114l-65-47c-36 64-91 91-165 91-110 0-193-67-193-302v-26c28 78 108 125 202 125 148 0 235-79 235-218S526-12 365-12zM196 209c0-90 62-152 165-152 94 0 161 49 161 156 0 99-53 156-163 156-98 0-163-65-163-160z"/><glyph glyph-name="seven.LP" unicode="" horiz-adv-x="498" d="M163 0c0 222 84 476 230 624H35v76h469v-77C346 530 251 256 250 0h-87z"/><glyph glyph-name="eight.LP" unicode="" horiz-adv-x="652" d="M325-12C165-12 72 66 72 192c0 97 58 154 135 172-67 23-111 78-111 160 0 124 81 188 229 188 149 0 230-64 230-187 0-82-43-138-110-161 76-19 134-75 134-172 0-126-93-204-254-204zm168 207c0 86-65 133-167 133-103 0-168-47-168-133 0-90 61-137 167-137s168 47 168 137zm-22 329c0 80-52 121-146 121s-145-41-145-121c0-75 49-123 145-123 98 0 146 49 146 123z"/><glyph glyph-name="nine.LP" unicode="" horiz-adv-x="676" d="M310-12C201-12 125 24 84 102l65 47c36-64 91-91 165-91 110 0 193 67 193 302v26c-28-81-108-130-202-130-148 0-235 81-235 223 0 139 83 233 244 233 166 0 279-106 279-360C593 96 488-12 310-12zm173 503c0 90-62 152-165 152-94 0-161-51-161-161 0-99 53-156 163-156 98 0 163 67 163 165z"/><glyph glyph-name="zero.LT" unicode="" d="M311 712c193 0 279-105 279-362 0-252-87-362-279-362C120-12 34 94 34 350c0 257 86 362 277 362zm0-71c-122 0-189-69-189-292 0-224 67-291 189-291 124 0 191 67 191 293 0 217-67 290-191 290z"/><glyph glyph-name="one.LT" unicode="" d="M89 0v78h174v511l-94-64-38 69 163 106h55V78h186V0H89z"/><glyph glyph-name="two.LT" unicode="" d="M63 0v83l232 214c106 97 150 155 150 226 0 80-51 119-140 119-92 0-144-39-183-122l-64 46c51 101 128 146 254 146 145 0 220-68 220-185 0-89-48-162-180-287L175 73l391 1V0H63z"/><glyph glyph-name="three.LT" unicode="" d="M308-12C189-12 110 26 62 107l62 49c38-67 96-98 181-98 109 0 170 47 170 144 0 79-44 126-138 126h-99v76h96c73 0 122 45 122 120 0 82-55 118-149 118-79 0-129-29-171-105l-62 47c49 88 123 128 241 128 139 0 228-58 228-185 0-65-33-125-96-158 75-22 116-80 116-161 0-126-78-220-255-220z"/><glyph glyph-name="four.LT" unicode="" d="M22 183v60l234 457h91L117 259h293v319h87V259h106v-76H497V0h-87v183H22z"/><glyph glyph-name="five.LT" unicode="" d="M191 624l-21-219c43 27 102 40 159 40 125 0 236-61 236-217 0-141-91-240-265-240-108 0-193 38-240 120l63 50c39-67 98-101 178-101 112 0 177 66 177 169 0 101-62 150-167 150-74 0-129-24-176-61l-49 26 35 359h407v-76H191z"/><glyph glyph-name="six.LT" unicode="" d="M330-12C164-12 51 94 51 348c0 256 105 364 283 364 109 0 185-36 226-114l-65-47c-36 64-91 91-165 91-110 0-193-67-193-302v-26c28 78 108 125 202 125 148 0 235-79 235-218S491-12 330-12zM161 209c0-90 62-152 165-152 94 0 161 49 161 156 0 99-53 156-163 156-98 0-163-65-163-160z"/><glyph glyph-name="seven.LT" unicode="" d="M206 0c0 222 84 476 230 624H78v76h469v-77C389 530 294 256 293 0h-87z"/><glyph glyph-name="eight.LT" unicode="" d="M312-12C152-12 59 66 59 192c0 97 58 154 135 172-67 23-111 78-111 160 0 124 81 188 229 188 149 0 230-64 230-187 0-82-43-138-110-161 76-19 134-75 134-172 0-126-93-204-254-204zm168 207c0 86-65 133-167 133-103 0-168-47-168-133 0-90 61-137 167-137s168 47 168 137zm-22 329c0 80-52 121-146 121s-145-41-145-121c0-75 49-123 145-123 98 0 146 49 146 123z"/><glyph glyph-name="nine.LT" unicode="" d="M291-12C182-12 106 24 65 102l65 47c36-64 91-91 165-91 110 0 193 67 193 302v26c-28-81-108-130-202-130-148 0-235 81-235 223 0 139 83 233 244 233 166 0 279-106 279-360C574 96 469-12 291-12zm173 503c0 90-62 152-165 152-94 0-161-51-161-161 0-99 53-156 163-156 98 0 163 67 163 165z"/><glyph glyph-name="G.alt" unicode="" horiz-adv-x="743" d="M376-12C182-12 77 101 77 351c0 261 105 361 314 361 125 0 206-40 254-128l-71-49c-39 74-95 105-183 105-145 0-225-58-225-289 0-223 78-291 220-291 119 0 198 59 193 223H393v70h275v-63C667 78 564-12 376-12z"/><glyph glyph-name="G.alt" unicode="" horiz-adv-x="743" d="M376-12C182-12 77 101 77 351c0 261 105 361 314 361 125 0 206-40 254-128l-71-49c-39 74-95 105-183 105-145 0-225-58-225-289 0-223 78-291 220-291 119 0 198 59 193 223H393v70h275v-63C667 78 564-12 376-12z"/><glyph glyph-name="Gbreve.alt" unicode="" horiz-adv-x="743" d="M376-12C182-12 77 101 77 351c0 261 105 361 314 361 125 0 206-40 254-128l-71-49c-39 74-95 105-183 105-145 0-225-58-225-289 0-223 78-291 220-291 119 0 198 59 193 223H393v70h275v-63C667 78 564-12 376-12zm88 917h66c0-94-54-123-142-123-89 0-143 29-143 123h66c0-52 26-68 76-68 51 0 77 16 77 68z"/><glyph glyph-name="Gcircumflex.alt" unicode="" horiz-adv-x="743" d="M376-12C182-12 77 101 77 351c0 261 105 361 314 361 125 0 206-40 254-128l-71-49c-39 74-95 105-183 105-145 0-225-58-225-289 0-223 78-291 220-291 119 0 198 59 193 223H393v70h275v-63C667 78 564-12 376-12zm14 869l-70-69h-93v3l122 114h83l123-114v-3h-98z"/><glyph glyph-name="Gcommaaccent.alt" unicode="" horiz-adv-x="743" d="M376-12C182-12 77 101 77 351c0 261 105 361 314 361 125 0 206-40 254-128l-71-49c-39 74-95 105-183 105-145 0-225-58-225-289 0-223 78-291 220-291 119 0 198 59 193 223H393v70h275v-63C667 78 564-12 376-12zm-32-280l-17 40c38 11 59 41 63 80h-5c-38 0-59 19-59 55 0 35 22 53 56 53 38 0 61-23 61-81 0-68-31-129-99-147z"/><glyph glyph-name="Gdotaccent.alt" unicode="" horiz-adv-x="743" d="M376-12C182-12 77 101 77 351c0 261 105 361 314 361 125 0 206-40 254-128l-71-49c-39 74-95 105-183 105-145 0-225-58-225-289 0-223 78-291 220-291 119 0 198 59 193 223H393v70h275v-63C667 78 564-12 376-12zm-46 863c0 37 23 56 60 56s59-19 59-56-22-57-59-57-60 20-60 57z"/><glyph glyph-name="K.alt" unicode="" horiz-adv-x="638" d="M109 0v700h91V0h-91zm414 0L218 341v3l300 356h103L321 354 638 0H523z"/><glyph glyph-name="Kcommaaccent.alt" unicode="" horiz-adv-x="638" d="M307-292l-17 40c38 11 59 41 63 80h-5c-38 0-59 19-59 55 0 35 22 53 56 53 38 0 61-23 61-81 0-68-31-129-99-147zM109 0v700h91V0h-91zm414 0L218 341v3l300 356h103L321 354 638 0H523z"/><glyph glyph-name="k.alt" unicode="" horiz-adv-x="532" d="M94 0v700h86V0H94zm321-1L193 237v3l217 247h98L289 245 518 0z"/><glyph glyph-name="k.alt" unicode="" horiz-adv-x="532" d="M94 0v700h86V0H94zm321-1L193 237v3l217 247h98L289 245 518 0z"/><glyph glyph-name="kcommaaccent.alt" unicode="" horiz-adv-x="532" d="M246-292l-17 40c38 11 59 41 63 80h-5c-38 0-59 19-59 55 0 35 22 53 56 53 38 0 61-23 61-81 0-68-31-129-99-147zM94 0v700h86V0H94zm321-1L193 237v3l217 247h98L289 245 518 0z"/></font>
</defs>
</svg>
