<svg version="1.1" id="Layer_1" xmlns="http://www.w3.org/2000/svg" xmlns:xlink="http://www.w3.org/1999/xlink" x="0px" y="0px" viewBox="0 0 275 90" enable-background="new 0 0 275 90" xml:space="preserve">

	<g id="logo-ground">
		<path d="M66.2,50.4V64h4.3v-6.6c0-2.3,1.2-3.5,3-3.5c1.6,0,2.4,0.8,2.4,3.1V64h4.3v-8.5c0-3.2-1.5-5.4-5-5.4 c-2.2,0-4,1-5,2.8l-0.4-2.5H66.2z"/>
		<path d="M58.9,64h3.5V50.4h-4.3v6.9c0,2.3-1.2,3.5-2.9,3.5c-1.6,0-2.4-1-2.4-3v-7.4h-4.3V59c0,3.1,1.6,5.3,5.2,5.3 c2,0,3.8-0.9,4.8-2.7L58.9,64z"/>
		<path d="M21,64h4.3v-5.4c0-2.9,1.5-4.7,4.5-4.4l0-4.1c-2.2-0.1-3.9,1.1-4.8,3l-0.4-2.7H21V64z"/>
		<path d="M8.5,64.3c2.5,0,4.4-1,5.4-2.7l0.3,2.3h3.2V53.7h-8V57h4v0.2c-0.2,2.7-2.1,3.6-4,3.6 c-3.1,0-4.8-1.5-4.8-6.4c0-4.8,1.7-6.2,4.8-6.2c2,0,3,0.6,3.9,2.3l3.6-1.9c-1.3-2.9-3.7-4.1-7.4-4.1c-6.2,0-9.3,3-9.3,9.9 C0,61.2,3.2,64.3,8.5,64.3"/>
		<path d="M93,45v6.9c-1-1.2-2.2-1.9-4-1.9c-3.6,0-6,2.5-6,7.3c0,4.6,2.2,7,5.7,7c2.2,0,3.7-0.4,4.6-2l0.2,2.6H97V45 H93z M90,61.1c-1.9,0-2.8-1.3-2.8-3.9c0-2.8,1-4,2.8-4c1.7,0,3,1.1,3,3.9C93,59.9,91.8,61.1,90,61.1z"/>
		<path d="M38.6,50.1c-4.5,0-7.1,2.2-7.1,7.1c0,4.8,2.4,7.2,7.1,7.2c4.7,0,7.1-2.4,7.1-7.2 C45.7,52.3,43.4,50.1,38.6,50.1z M38.6,61.2c-2.1,0-3-1.1-3-4c0-2.8,0.9-3.9,3-3.9c2.1,0,3,1.1,3,3.9C41.6,60,40.7,61.2,38.6,61.2 z"/>
	</g>

	<g id="logo-reconsidered">
		<path d="M235.2,44.9h4.3v-5.4c0-2.9,1.5-4.7,4.5-4.4l0-4.1c-2.2-0.1-3.9,1.1-4.8,3l-0.4-2.7h-3.6V44.9z"/>
		<path d="M194,27.4c0,1.5,0.9,2.2,2.5,2.2c1.6,0,2.5-0.7,2.5-2.2c0-1.6-0.9-2.2-2.5-2.2 C194.9,25.1,194,25.8,194,27.4"/>
		<rect x="194.4" y="31.3" width="4.3" height="13.5"/>
		<path d="M185.3,42.4c-1.7,0-3.1-0.7-4-1.9l-2.2,2.1c1.2,1.8,3.3,2.6,6.1,2.6c4.6,0,6-2.1,6-4.3 c0-2-1.2-3.6-4.3-4.2l-1.6-0.3c-1.3-0.3-1.8-0.7-1.8-1.3c0-0.7,0.7-1.1,2-1.1c1.5,0,2.6,0.5,3.4,1.5l2.2-2.2 c-1.3-1.6-3.1-2.3-5.7-2.3c-3.9,0-5.7,1.9-5.7,4.3c0,2.3,1.9,3.9,4.7,4.5l1.1,0.2c1.3,0.3,1.8,0.5,1.8,1.3 C187.5,42,186.8,42.4,185.3,42.4"/>
		<path d="M162.9,31.3v13.5h4.3v-6.6c0-2.3,1.2-3.5,3-3.5c1.6,0,2.4,0.8,2.4,3.1v7.1h4.3v-8.5c0-3.2-1.5-5.4-5-5.4 c-2.2,0-4,1-5,2.8l-0.4-2.5H162.9z"/>
		<path d="M137.8,45.2c3,0,5-1.1,6.2-3.4l-3-1.7c-0.5,1.3-1.5,1.9-3,1.9c-2.1,0-2.9-1.3-2.9-3.9c0-2.9,1-3.8,3-3.8 c1.3,0,2.2,0.5,2.8,1.7l2.9-2.1c-1.1-2-3-3-5.8-3c-4.5,0-7.1,2.2-7.1,7.1C130.9,43.2,133.5,45.2,137.8,45.2"/>
		<path d="M271,26v6.8c-1-1.2-2.1-1.9-3.9-1.9c-3.6,0-5.9,2.5-5.9,7.3c0,4.6,2.3,7,5.7,7c2.2,0,3.7-0.8,4.6-2.4 l0.2,2.2h3.2V26H271z M268.3,42c-1.9,0-2.8-1.3-2.8-3.9c0-2.8,1-4,2.8-4c1.7,0,3,1.1,3,3.9C271.2,40.8,270,42,268.3,42z"/>
		<path d="M259,38.2c0-3.8-1.9-7-6.4-7c-4.4,0-6.9,2.6-6.9,7.1c0,4.8,2.7,7,7,7c2.8,0,4.9-1,6-3.1l-2.6-1.6 c-0.7,1.3-1.7,2.1-3.1,2.1c-2,0-3.1-0.7-3.3-2.7h9.1C258.9,39,259,38.6,259,38.2z M249.8,37c0.2-2,1.2-2.8,2.8-2.8 c1.6,0,2.4,0.8,2.5,2.8H249.8z"/>
		<path d="M232.2,38.2c0-3.8-1.9-7-6.4-7c-4.4,0-6.9,2.6-6.9,7.1c0,4.8,2.7,7,7,7c2.8,0,4.9-1,6-3.1l-2.6-1.6 c-0.7,1.3-1.7,2.1-3.1,2.1c-2,0-3.1-0.7-3.3-2.7h9.1C232.2,39,232.2,38.6,232.2,38.2z M223,37c0.2-2,1.2-2.8,2.7-2.8 c1.6,0,2.4,0.8,2.5,2.8H223z"/>
		<path d="M211,26v6.8c-1-1.2-1.9-1.9-3.7-1.9c-3.6,0-5.8,2.5-5.8,7.3c0,4.6,2.3,7,5.8,7c2.2,0,3.8-0.8,4.7-2.4 l0.3,2.2h3.7V26H211z M208.7,42c-1.9,0-2.8-1.3-2.8-3.9c0-2.8,1-4,2.8-4c1.7,0,3,1.1,3,3.9C211.7,40.8,210.4,42,208.7,42z"/>
		<path d="M152.7,31c-4.5,0-7.1,2.2-7.1,7.1c0,4.8,2.4,7.2,7.1,7.2c4.7,0,7.1-2.4,7.1-7.2 C159.8,33.2,157.5,31,152.7,31z M152.7,42.1c-2.1,0-3-1.1-3-4c0-2.8,0.9-3.9,3-3.9c2.1,0,3,1.1,3,3.9 C155.8,40.9,154.8,42.1,152.7,42.1z"/>
		<path d="M128.6,38.2c0-3.8-1.9-7-6.4-7c-4.4,0-6.9,2.6-6.9,7.1c0,4.8,2.7,7,7,7c2.8,0,4.9-1,6-3.1l-2.6-1.6 c-0.7,1.3-1.7,2.1-3.1,2.1c-2,0-3.1-0.7-3.3-2.7h9.1C128.6,39,128.6,38.6,128.6,38.2z M119.4,37c0.2-2,1.2-2.8,2.8-2.8 c1.6,0,2.4,0.8,2.5,2.8H119.4z"/>
		<path d="M109.8,37.8c2-1,3.2-2.8,3.2-5.6c0-3.8-2.2-6.2-6.5-6.2H97v19h4v-6h4.4l2.9,6h4.9L109.8,37.8z M105.7,35 H101v-5h4.8c1.9,0,2.8,0.8,2.8,2.4C108.6,34.3,107.5,35,105.7,35z"/>
	</g>

</svg>
